<svg xmlns="http://www.w3.org/2000/svg" viewBox="0 0 500 700"><g id="b428ad26-775c-4473-8b9f-9f19ba2fcd65" data-name="控制层"><g id="b1027bf8-5bc3-4657-b919-fad4324bd64e" data-name="6中"><rect x="187.5" y="575" width="125" height="50"/></g><g id="f0b5b77a-872e-48ec-88e9-c948dc0f150e" data-name="5中"><rect x="187.5" y="475" width="125" height="50"/></g><g id="e5e48ac9-95f9-4370-bf30-6f0340633b67" data-name="4中"><rect x="187.5" y="375" width="125" height="50"/></g><g id="bd598b6c-00a3-4b4a-8af0-49be40e70b36" data-name="3中"><rect x="187.5" y="275" width="125" height="50"/></g><g id="aa7c8b4d-805b-4e0c-973f-f4b3c6443372" data-name="2中"><rect x="187.5" y="175" width="125" height="50"/></g><g id="effeecba-a61a-4ba7-9b70-e4a749181131" data-name="1中"><rect x="187.5" y="75" width="125" height="50"/></g></g><g id="e0d5b13d-f771-40f6-9af0-22c0be71b91f" data-name="6右"><rect x="312.5" y="575" width="125" height="50"/><rect x="275" y="575" width="162.5" height="50"/></g><g id="a53157c4-5d62-452a-b2d5-b112a41a1303" data-name="6左"><rect x="62.5" y="575" width="125" height="50"/><rect x="62.5" y="575" width="162.5" height="50"/></g><g id="f7e7a6dc-cc47-456f-ae66-eaee8df6d935" data-name="5右"><rect x="312.5" y="475" width="125" height="50"/><rect x="275" y="475" width="162.5" height="50"/></g><g id="fd8c672c-e900-4ad1-9cce-1ef652b1240d" data-name="5左"><rect x="62.5" y="475" width="125" height="50"/><rect x="62.5" y="475" width="162.5" height="50"/></g><g id="a3da68f9-fa7d-442e-afe0-fca39229db3b" data-name="4右"><rect x="312.5" y="375" width="125" height="50"/><rect x="275" y="375" width="162.5" height="50"/></g><g id="bef40cd4-4704-46ef-b0e7-577b6ce9d4e4" data-name="4左"><rect x="62.5" y="375" width="125" height="50"/><rect x="62.5" y="375" width="162.5" height="50"/></g><g id="b56b949d-0509-4311-b1d6-d84ba671753a" data-name="3右"><rect x="312.5" y="275" width="125" height="50"/><rect x="275" y="275" width="162.5" height="50"/></g><g id="a42361a3-3f8d-4145-a6c0-5cb7713c572a" data-name="3左"><rect x="62.5" y="275" width="125" height="50"/><rect x="62.5" y="275" width="162.5" height="50"/></g><g id="b7ebf667-84a1-4b18-aa3a-0e2ae4686e4a" data-name="2右"><rect x="312.5" y="175" width="125" height="50"/><rect x="275" y="175" width="162.5" height="50"/></g><g id="b7edaff6-1504-45cb-a112-9ff6ad23c5c5" data-name="2左"><rect x="62.5" y="175" width="125" height="50"/><rect x="62.5" y="175" width="162.5" height="50"/></g><g id="fe32a379-aad6-4192-a716-71f898ec4a41" data-name="1右"><rect x="312.5" y="75" width="125" height="50"/><rect x="275" y="75" width="162.5" height="50"/></g><g id="b9b76c8a-b26e-46bf-852a-f8373cba7e70" data-name="1左"><rect x="62.5" y="75" width="125" height="50"/><rect x="62.5" y="75" width="162.5" height="50"/></g></svg>