<svg xmlns="http://www.w3.org/2000/svg" viewBox="0 0 500 700"><g id="aec5037f-4e72-47ba-b7c5-c15b3d1fadc2" data-name="6右"><rect x="312.5" y="575" width="125" height="50"/><rect x="275" y="575" width="162.5" height="50"/></g><g id="b53ecc3c-9947-4f95-8b06-4677df76990e" data-name="6左"><rect x="62.5" y="575" width="125" height="50"/><rect x="62.5" y="575" width="162.5" height="50"/></g><g id="af258085-8333-45a4-8b21-dc7a445e9d42" data-name="5右"><rect x="312.5" y="475" width="125" height="50"/><rect x="275" y="475" width="162.5" height="50"/></g><g id="b67e3de8-a624-44ba-b091-4e7fa98c9026" data-name="5左"><rect x="62.5" y="475" width="125" height="50"/><rect x="62.5" y="475" width="162.5" height="50"/></g><g id="b91dfb37-4686-424a-93de-b60355cfae2d" data-name="4右"><rect x="312.5" y="375" width="125" height="50"/><rect x="275" y="375" width="162.5" height="50"/></g><g id="a1487e8c-a55a-48c0-a952-ca414c78c093" data-name="4左"><rect x="62.5" y="375" width="125" height="50"/><rect x="62.5" y="375" width="162.5" height="50"/></g><g id="bd3695d4-52c6-41ff-a304-1f7305c17a2c" data-name="3右"><rect x="312.5" y="275" width="125" height="50"/><rect x="275" y="275" width="162.5" height="50"/></g><g id="b5e41446-cd3a-405e-a533-ee924ce43861" data-name="3左"><rect x="62.5" y="275" width="125" height="50"/><rect x="62.5" y="275" width="162.5" height="50"/></g><g id="e49fb0fb-9ce1-4271-ba39-5d7e8542b67b" data-name="2右"><rect x="312.5" y="175" width="125" height="50"/><rect x="275" y="175" width="162.5" height="50"/></g><g id="fb4f9e47-c247-40ff-9131-16fb806c6d86" data-name="2左"><rect x="62.5" y="175" width="125" height="50"/><rect x="62.5" y="175" width="162.5" height="50"/></g><g id="bd34ec22-a89e-4d7b-9039-3b9e876dfd66" data-name="1右"><rect x="312.5" y="75" width="125" height="50"/><rect x="275" y="75" width="162.5" height="50"/></g><g id="eb3531d9-f6cb-4efe-a38a-6d5f589b2a68" data-name="1左"><rect x="62.5" y="75" width="125" height="50"/><rect x="62.5" y="75" width="162.5" height="50"/></g></svg>