<svg xmlns="http://www.w3.org/2000/svg" viewBox="0 0 500 700"><g id="a562173a-e014-48d0-885f-2490b3a57c04" data-name="控制层"><g id="b526a708-d861-4ba5-9f7f-2754ebeb0889" data-name="6中"><rect x="187.5" y="575" width="125" height="50"/></g><g id="ef72adc9-75d6-4b06-963e-1606f4b3cc55" data-name="2中"><rect x="187.5" y="175" width="125" height="50"/></g></g><g id="a5da250e-c463-41bf-891e-8e4b6b882bc8" data-name="6右"><rect x="312.5" y="575" width="125" height="50"/><rect x="275" y="575" width="162.5" height="50"/></g><g id="a8f79304-14ca-4eca-859e-c1920bdc05bb" data-name="6左"><rect x="62.5" y="575" width="125" height="50"/><rect x="62.5" y="575" width="162.5" height="50"/></g><g id="f5d1cc7b-2b79-46f0-b3b3-2a0fc1804a11" data-name="5右"><rect x="312.5" y="475" width="125" height="50"/><rect x="275" y="475" width="162.5" height="50"/></g><g id="e0696d9e-43c0-4757-bfaf-ec158ad09b0c" data-name="5左"><rect x="62.5" y="475" width="125" height="50"/><rect x="62.5" y="475" width="162.5" height="50"/></g><g id="f7323d9c-3087-4df6-a1aa-5e0710d52484" data-name="4右"><rect x="312.5" y="375" width="125" height="50"/><rect x="275" y="375" width="162.5" height="50"/></g><g id="f386eff0-1f0e-4e29-afb8-d2ca7f5898a8" data-name="4左"><rect x="62.5" y="375" width="125" height="50"/><rect x="62.5" y="375" width="162.5" height="50"/></g><g id="b91dcee3-00a8-4e05-a4b0-d74ae65b9bbd" data-name="3右"><rect x="312.5" y="275" width="125" height="50"/><rect x="275" y="275" width="162.5" height="50"/></g><g id="e3709ba1-a0c8-443c-bb50-582bf9f6d6a5" data-name="3左"><rect x="62.5" y="275" width="125" height="50"/><rect x="62.5" y="275" width="162.5" height="50"/></g><g id="e05e9cc8-2a18-4f8e-8536-1bd792f824cc" data-name="2右"><rect x="312.5" y="175" width="125" height="50"/><rect x="275" y="175" width="162.5" height="50"/></g><g id="b851ee33-bad8-4ffc-acd3-44d0dba508c8" data-name="2左"><rect x="62.5" y="175" width="125" height="50"/><rect x="62.5" y="175" width="162.5" height="50"/></g><g id="fde79a83-40c6-43a2-aab2-0b4d42a18696" data-name="1右"><rect x="312.5" y="75" width="125" height="50"/><rect x="275" y="75" width="162.5" height="50"/></g><g id="b74e1a88-3825-40ef-be44-cf52486d65d1" data-name="1左"><rect x="62.5" y="75" width="125" height="50"/><rect x="62.5" y="75" width="162.5" height="50"/></g></svg>