<svg xmlns="http://www.w3.org/2000/svg" viewBox="0 0 500 700"><g id="fc380bd3-fed7-4b7e-a14e-67631941da4a" data-name="控制层"><g id="a5bb8c10-f76c-4fe2-967f-da58b59c7500" data-name="5中"><rect x="187.5" y="475" width="125" height="50"/></g><g id="fde5b515-950a-4e90-b811-c4ad7996b00f" data-name="1中"><rect x="187.5" y="75" width="125" height="50"/></g></g><g id="b1ab709a-3d84-4054-a933-1d7da26f7858" data-name="6右"><rect x="312.5" y="575" width="125" height="50"/><rect x="275" y="575" width="162.5" height="50"/></g><g id="bbf6bf99-b91b-499e-85a2-510d00cd157a" data-name="6左"><rect x="62.5" y="575" width="125" height="50"/><rect x="62.5" y="575" width="162.5" height="50"/></g><g id="aeceba9e-5e52-4271-810c-b58a682f8d16" data-name="5右"><rect x="312.5" y="475" width="125" height="50"/><rect x="275" y="475" width="162.5" height="50"/></g><g id="e520ad5d-7630-44fc-bb3c-c941123b8e78" data-name="5左"><rect x="62.5" y="475" width="125" height="50"/><rect x="62.5" y="475" width="162.5" height="50"/></g><g id="adbced5a-eabb-4751-9d3d-82ce316d4eac" data-name="4右"><rect x="312.5" y="375" width="125" height="50"/><rect x="275" y="375" width="162.5" height="50"/></g><g id="a191ce36-423b-4c08-bf29-cfcf06fe04fb" data-name="4左"><rect x="62.5" y="375" width="125" height="50"/><rect x="62.5" y="375" width="162.5" height="50"/></g><g id="ab05ab7b-eeab-4e3f-ac2e-20c195fe4d50" data-name="3右"><rect x="312.5" y="275" width="125" height="50"/><rect x="275" y="275" width="162.5" height="50"/></g><g id="bfa3b2b5-1366-4e7e-ad03-22df240257d2" data-name="3左"><rect x="62.5" y="275" width="125" height="50"/><rect x="62.5" y="275" width="162.5" height="50"/></g><g id="b041e569-904a-4ccc-b9cb-e4426e207146" data-name="2右"><rect x="312.5" y="175" width="125" height="50"/><rect x="275" y="175" width="162.5" height="50"/></g><g id="e7aeab8e-1a30-4e0f-83c9-f0087d867601" data-name="2左"><rect x="62.5" y="175" width="125" height="50"/><rect x="62.5" y="175" width="162.5" height="50"/></g><g id="b0cae567-1d16-4f8f-9e00-2bc687cd2c88" data-name="1右"><rect x="312.5" y="75" width="125" height="50"/><rect x="275" y="75" width="162.5" height="50"/></g><g id="a7580c6c-c9e3-42fb-b618-72dbddc10f96" data-name="1左"><rect x="62.5" y="75" width="125" height="50"/><rect x="62.5" y="75" width="162.5" height="50"/></g></svg>