<svg xmlns="http://www.w3.org/2000/svg" viewBox="0 0 500 700"><g id="e47266e3-3c18-43db-b29e-93b3b33d8aa5" data-name="控制层"><g id="bb7726bb-bacc-4b3b-94cb-ef4ef0495d47" data-name="6中"><rect x="187.5" y="575" width="125" height="50"/></g><g id="fe22da20-3174-4658-bd7f-f47d46492854" data-name="5中"><rect x="187.5" y="475" width="125" height="50"/></g><g id="faf47a51-ee26-4f2c-9b79-08bc016493fe" data-name="4中"><rect x="187.5" y="375" width="125" height="50"/></g><g id="fe811b00-b02b-42d4-b8e7-ee660ff02edd" data-name="2中"><rect x="187.5" y="175" width="125" height="50"/></g></g><g id="aca4fc8b-f5f9-4902-aa32-d854091d7cb7" data-name="6右"><rect x="312.5" y="575" width="125" height="50"/><rect x="275" y="575" width="162.5" height="50"/></g><g id="a697d3ed-cf7b-44e6-a97f-0df3390b11e5" data-name="6左"><rect x="62.5" y="575" width="125" height="50"/><rect x="62.5" y="575" width="162.5" height="50"/></g><g id="ab5c3dd8-a118-41f6-8c55-266b652d0ea1" data-name="5右"><rect x="312.5" y="475" width="125" height="50"/><rect x="275" y="475" width="162.5" height="50"/></g><g id="bfa74bb4-4762-4610-b163-01e10846c88f" data-name="5左"><rect x="62.5" y="475" width="125" height="50"/><rect x="62.5" y="475" width="162.5" height="50"/></g><g id="fd94e023-59bd-41d7-8382-50a00c37bae3" data-name="4右"><rect x="312.5" y="375" width="125" height="50"/><rect x="275" y="375" width="162.5" height="50"/></g><g id="bbf8164d-1963-42fd-8d7b-903ebf93fef9" data-name="4左"><rect x="62.5" y="375" width="125" height="50"/><rect x="62.5" y="375" width="162.5" height="50"/></g><g id="bcaf5af5-cff0-48e8-b387-8cee1eea038f" data-name="3右"><rect x="312.5" y="275" width="125" height="50"/><rect x="275" y="275" width="162.5" height="50"/></g><g id="f4afe396-3cc6-4aa7-9da5-ae5841c4fdbd" data-name="3左"><rect x="62.5" y="275" width="125" height="50"/><rect x="62.5" y="275" width="162.5" height="50"/></g><g id="b09bcc50-2c11-4d55-960a-6a1e734e4f02" data-name="2右"><rect x="312.5" y="175" width="125" height="50"/><rect x="275" y="175" width="162.5" height="50"/></g><g id="a881f0a5-89e4-4fcb-a958-d9be7ddd844e" data-name="2左"><rect x="62.5" y="175" width="125" height="50"/><rect x="62.5" y="175" width="162.5" height="50"/></g><g id="f0f76dfb-bbeb-41dd-af17-246812f39692" data-name="1右"><rect x="312.5" y="75" width="125" height="50"/><rect x="275" y="75" width="162.5" height="50"/></g><g id="a5878d2e-2564-4559-a313-28d1d4f7dcac" data-name="1左"><rect x="62.5" y="75" width="125" height="50"/><rect x="62.5" y="75" width="162.5" height="50"/></g></svg>