<svg xmlns="http://www.w3.org/2000/svg" viewBox="0 0 500 700"><g id="a5955730-1c08-4582-89aa-0202888c3f1b" data-name="控制层"><g id="b0b6ac88-b5ba-4b6b-8a0e-931d6fba2122" data-name="5中"><rect x="187.5" y="475" width="125" height="50"/></g><g id="f9a7673f-645b-487d-af4b-e1181f2a9a7c" data-name="3中"><rect x="187.5" y="275" width="125" height="50"/></g><g id="f107732e-951a-4a87-ac81-3c83829a3b70" data-name="2中"><rect x="187.5" y="175" width="125" height="50"/></g><g id="a8a8c8f5-de63-4e17-805e-a945d6ccedf8" data-name="1中"><rect x="187.5" y="75" width="125" height="50"/></g></g><g id="bb9ac1dc-f6ff-4185-b4d9-49499e605eff" data-name="6右"><rect x="312.5" y="575" width="125" height="50"/><rect x="275" y="575" width="162.5" height="50"/></g><g id="f182dbb3-158d-4e04-a1d0-e1af185c7040" data-name="6左"><rect x="62.5" y="575" width="125" height="50"/><rect x="62.5" y="575" width="162.5" height="50"/></g><g id="a8176c82-a658-4064-9a06-7e3b15775599" data-name="5右"><rect x="312.5" y="475" width="125" height="50"/><rect x="275" y="475" width="162.5" height="50"/></g><g id="ab3602d4-5547-4ffc-b68b-105d3f594a23" data-name="5左"><rect x="62.5" y="475" width="125" height="50"/><rect x="62.5" y="475" width="162.5" height="50"/></g><g id="b01b54dd-7fb9-462a-a72d-6be40ea0b59b" data-name="4右"><rect x="312.5" y="375" width="125" height="50"/><rect x="275" y="375" width="162.5" height="50"/></g><g id="a5592b82-33c4-453e-8972-069c6ba42fa6" data-name="4左"><rect x="62.5" y="375" width="125" height="50"/><rect x="62.5" y="375" width="162.5" height="50"/></g><g id="f416c6a9-554d-4bc3-99d2-4776958323e4" data-name="3右"><rect x="312.5" y="275" width="125" height="50"/><rect x="275" y="275" width="162.5" height="50"/></g><g id="fda72d94-b1be-4972-8780-b932db1545b6" data-name="3左"><rect x="62.5" y="275" width="125" height="50"/><rect x="62.5" y="275" width="162.5" height="50"/></g><g id="bd467a30-6d2f-40d9-8ce3-4f443331f3db" data-name="2右"><rect x="312.5" y="175" width="125" height="50"/><rect x="275" y="175" width="162.5" height="50"/></g><g id="a7236135-0c16-45be-aa62-879d926c8f5e" data-name="2左"><rect x="62.5" y="175" width="125" height="50"/><rect x="62.5" y="175" width="162.5" height="50"/></g><g id="bf321104-cef9-4740-a2a4-c9b0941ec81c" data-name="1右"><rect x="312.5" y="75" width="125" height="50"/><rect x="275" y="75" width="162.5" height="50"/></g><g id="b61652df-8182-46d0-8fa1-3e6405919f7d" data-name="1左"><rect x="62.5" y="75" width="125" height="50"/><rect x="62.5" y="75" width="162.5" height="50"/></g></svg>