<svg xmlns="http://www.w3.org/2000/svg" viewBox="0 0 500 700"><g id="b2fc1d90-51b6-4bb8-825a-6c3dd735293f" data-name="控制层"><g id="a2f9b076-1371-40aa-88a5-f85dbaac1686" data-name="5中"><rect x="187.5" y="475" width="125" height="50"/></g></g><g id="a8180b10-9463-4d69-bc46-5e22a194685f" data-name="6右"><rect x="312.5" y="575" width="125" height="50"/><rect x="275" y="575" width="162.5" height="50"/></g><g id="bf1e6f2f-1551-4ab9-938e-931ccddfd3b4" data-name="6左"><rect x="62.5" y="575" width="125" height="50"/><rect x="62.5" y="575" width="162.5" height="50"/></g><g id="fec60c50-b3db-42ae-85e4-993c44bece18" data-name="5右"><rect x="312.5" y="475" width="125" height="50"/><rect x="275" y="475" width="162.5" height="50"/></g><g id="b2d65dcb-475d-47a1-b47c-777b3682da93" data-name="5左"><rect x="62.5" y="475" width="125" height="50"/><rect x="62.5" y="475" width="162.5" height="50"/></g><g id="b438fdcd-c056-4a6c-b363-10589d9e7a1d" data-name="4右"><rect x="312.5" y="375" width="125" height="50"/><rect x="275" y="375" width="162.5" height="50"/></g><g id="f431f863-6b48-41da-8d5f-3bb9034ffd02" data-name="4左"><rect x="62.5" y="375" width="125" height="50"/><rect x="62.5" y="375" width="162.5" height="50"/></g><g id="b084ee8c-fbec-48cb-8562-02fb71dc65bd" data-name="3右"><rect x="312.5" y="275" width="125" height="50"/><rect x="275" y="275" width="162.5" height="50"/></g><g id="bac18080-7e10-44e1-b156-528bf2d4935b" data-name="3左"><rect x="62.5" y="275" width="125" height="50"/><rect x="62.5" y="275" width="162.5" height="50"/></g><g id="af80dfcb-a80d-4886-a148-158bb17af3a3" data-name="2右"><rect x="312.5" y="175" width="125" height="50"/><rect x="275" y="175" width="162.5" height="50"/></g><g id="a525412f-9847-42e4-8c91-d62089da6bc8" data-name="2左"><rect x="62.5" y="175" width="125" height="50"/><rect x="62.5" y="175" width="162.5" height="50"/></g><g id="acef7936-6ee8-46f0-b1d5-e0b6d49fcad4" data-name="1右"><rect x="312.5" y="75" width="125" height="50"/><rect x="275" y="75" width="162.5" height="50"/></g><g id="bc97bde6-6302-4bcc-9280-712082e6c7d5" data-name="1左"><rect x="62.5" y="75" width="125" height="50"/><rect x="62.5" y="75" width="162.5" height="50"/></g></svg>