<svg xmlns="http://www.w3.org/2000/svg" viewBox="0 0 500 700"><g id="bb38fc90-d33b-4ed8-98b6-0a84f4888ab9" data-name="控制层"><g id="b57b3217-89d3-44a0-86dc-0f35bbdbdcef" data-name="2中"><rect x="187.5" y="175" width="125" height="50"/></g></g><g id="bd8e4429-3e62-4e76-8edb-66e680babbbf" data-name="6右"><rect x="312.5" y="575" width="125" height="50"/><rect x="275" y="575" width="162.5" height="50"/></g><g id="a9935db7-e1f6-46a2-9c52-b53176bfe746" data-name="6左"><rect x="62.5" y="575" width="125" height="50"/><rect x="62.5" y="575" width="162.5" height="50"/></g><g id="ed739f13-02ed-4cb7-9cc1-b126e14932e3" data-name="5右"><rect x="312.5" y="475" width="125" height="50"/><rect x="275" y="475" width="162.5" height="50"/></g><g id="a13c0574-1a91-420f-b331-5bf90922eae8" data-name="5左"><rect x="62.5" y="475" width="125" height="50"/><rect x="62.5" y="475" width="162.5" height="50"/></g><g id="ee8cc259-db32-4511-9149-bba65b5a4214" data-name="4右"><rect x="312.5" y="375" width="125" height="50"/><rect x="275" y="375" width="162.5" height="50"/></g><g id="bb1392fb-8c44-4074-a707-60ce531bba45" data-name="4左"><rect x="62.5" y="375" width="125" height="50"/><rect x="62.5" y="375" width="162.5" height="50"/></g><g id="f92413fe-2ec1-4892-8ba1-3a62247a0bff" data-name="3右"><rect x="312.5" y="275" width="125" height="50"/><rect x="275" y="275" width="162.5" height="50"/></g><g id="fe9bbe7e-22ce-430f-ace4-fb10afe7f980" data-name="3左"><rect x="62.5" y="275" width="125" height="50"/><rect x="62.5" y="275" width="162.5" height="50"/></g><g id="f30c381d-d4b2-48e3-b269-b21ca58dd10b" data-name="2右"><rect x="312.5" y="175" width="125" height="50"/><rect x="275" y="175" width="162.5" height="50"/></g><g id="a66bb7df-a513-452d-ab13-eb57bb8a6f74" data-name="2左"><rect x="62.5" y="175" width="125" height="50"/><rect x="62.5" y="175" width="162.5" height="50"/></g><g id="efc0a19a-a5dd-4ae9-bcef-99afcfbb8685" data-name="1右"><rect x="312.5" y="75" width="125" height="50"/><rect x="275" y="75" width="162.5" height="50"/></g><g id="b9e01503-f0cd-4d44-8d9e-94fb80f8f2ce" data-name="1左"><rect x="62.5" y="75" width="125" height="50"/><rect x="62.5" y="75" width="162.5" height="50"/></g></svg>