<svg xmlns="http://www.w3.org/2000/svg" viewBox="0 0 500 700"><g id="f81dd4d0-3480-48b6-9308-cab247789f74" data-name="控制层"><g id="b3605b10-6683-4c6e-aefe-5019f3b9ea2e" data-name="6中"><rect x="187.5" y="575" width="125" height="50"/></g><g id="f2f91aba-df75-47e2-b69c-7c017d5aee87" data-name="5中"><rect x="187.5" y="475" width="125" height="50"/></g><g id="b74fb8bc-f77b-418a-b790-20919616c29f" data-name="4中"><rect x="187.5" y="375" width="125" height="50"/></g><g id="bf620c78-ae82-41ca-afc3-d2fe5d194f0b" data-name="2中"><rect x="187.5" y="175" width="125" height="50"/></g><g id="aaad3964-6b47-4bf9-9521-6c0303fa5984" data-name="1中"><rect x="187.5" y="75" width="125" height="50"/></g></g><g id="f5d93afe-151e-4cce-a997-5ac5913a640a" data-name="6右"><rect x="312.5" y="575" width="125" height="50"/><rect x="275" y="575" width="162.5" height="50"/></g><g id="b8b53300-1202-4478-af7c-63967d9f2b10" data-name="6左"><rect x="62.5" y="575" width="125" height="50"/><rect x="62.5" y="575" width="162.5" height="50"/></g><g id="aba92be5-c2f0-4f37-85de-d7bd7935f95f" data-name="5右"><rect x="312.5" y="475" width="125" height="50"/><rect x="275" y="475" width="162.5" height="50"/></g><g id="b34c2a1f-29e2-4d86-9120-e87a23e06a6c" data-name="5左"><rect x="62.5" y="475" width="125" height="50"/><rect x="62.5" y="475" width="162.5" height="50"/></g><g id="ede40c7e-995a-445a-b2a3-3f9dec01be37" data-name="4右"><rect x="312.5" y="375" width="125" height="50"/><rect x="275" y="375" width="162.5" height="50"/></g><g id="b6178975-ca06-4652-a318-cee95b45c938" data-name="4左"><rect x="62.5" y="375" width="125" height="50"/><rect x="62.5" y="375" width="162.5" height="50"/></g><g id="bd532b64-956f-491f-b26f-0b10539511b6" data-name="3右"><rect x="312.5" y="275" width="125" height="50"/><rect x="275" y="275" width="162.5" height="50"/></g><g id="a872db88-0762-4f10-a653-5c34eea188ac" data-name="3左"><rect x="62.5" y="275" width="125" height="50"/><rect x="62.5" y="275" width="162.5" height="50"/></g><g id="a5358bbe-3fd6-4646-b659-69130c529f64" data-name="2右"><rect x="312.5" y="175" width="125" height="50"/><rect x="275" y="175" width="162.5" height="50"/></g><g id="a924423e-808e-4977-829c-bbf3e9dd1631" data-name="2左"><rect x="62.5" y="175" width="125" height="50"/><rect x="62.5" y="175" width="162.5" height="50"/></g><g id="f9360baa-91ef-4e0e-ab0d-bafa3a3809d4" data-name="1右"><rect x="312.5" y="75" width="125" height="50"/><rect x="275" y="75" width="162.5" height="50"/></g><g id="ae857d23-c4c7-429b-9a09-ee8f24237074" data-name="1左"><rect x="62.5" y="75" width="125" height="50"/><rect x="62.5" y="75" width="162.5" height="50"/></g></svg>