<svg xmlns="http://www.w3.org/2000/svg" viewBox="0 0 500 700"><g id="b169fa53-3465-443d-bc01-bdd1ea6ffe73" data-name="控制层"><g id="a6baae9a-ea7d-4614-b89c-8ea8fdd4d77c" data-name="6中"><rect x="187.5" y="575" width="125" height="50"/></g><g id="bc234a63-a84a-4811-b328-4a32a5a24ad7" data-name="5中"><rect x="187.5" y="475" width="125" height="50"/></g><g id="fe13f8a7-f6ca-4c4a-b6c8-8826634939e5" data-name="3中"><rect x="187.5" y="275" width="125" height="50"/></g><g id="a9798157-c56b-4b79-93fe-d120a045b965" data-name="2中"><rect x="187.5" y="175" width="125" height="50"/></g><g id="f038ac49-add8-47d4-a290-73635062e793" data-name="1中"><rect x="187.5" y="75" width="125" height="50"/></g></g><g id="a42b24d6-5fe2-4f0e-b421-7f68ed0947c5" data-name="6右"><rect x="312.5" y="575" width="125" height="50"/><rect x="275" y="575" width="162.5" height="50"/></g><g id="efbfcb09-482f-4ef6-a5cd-6c6f78451e91" data-name="6左"><rect x="62.5" y="575" width="125" height="50"/><rect x="62.5" y="575" width="162.5" height="50"/></g><g id="b0bf54d7-a9b2-4269-ba82-8cdf874b84c4" data-name="5右"><rect x="312.5" y="475" width="125" height="50"/><rect x="275" y="475" width="162.5" height="50"/></g><g id="bd99fb71-5642-409d-bf5f-5c9ab406de65" data-name="5左"><rect x="62.5" y="475" width="125" height="50"/><rect x="62.5" y="475" width="162.5" height="50"/></g><g id="e04d0c89-4a5e-4c01-a7d7-2d17fff24b79" data-name="4右"><rect x="312.5" y="375" width="125" height="50"/><rect x="275" y="375" width="162.5" height="50"/></g><g id="a21156e6-74cb-4cad-a28f-cb15b0410f8a" data-name="4左"><rect x="62.5" y="375" width="125" height="50"/><rect x="62.5" y="375" width="162.5" height="50"/></g><g id="b30b33a7-5b3c-459a-8096-f84ac7fe51d4" data-name="3右"><rect x="312.5" y="275" width="125" height="50"/><rect x="275" y="275" width="162.5" height="50"/></g><g id="a3cf56c8-3fa1-436c-98a2-45fff89d0ad6" data-name="3左"><rect x="62.5" y="275" width="125" height="50"/><rect x="62.5" y="275" width="162.5" height="50"/></g><g id="f7dcc837-18ff-4a81-ae97-6a0d7ddf8497" data-name="2右"><rect x="312.5" y="175" width="125" height="50"/><rect x="275" y="175" width="162.5" height="50"/></g><g id="b7443642-70ce-4e32-bc74-f27779614972" data-name="2左"><rect x="62.5" y="175" width="125" height="50"/><rect x="62.5" y="175" width="162.5" height="50"/></g><g id="bdf1e994-f645-441b-8df6-54092f5b5566" data-name="1右"><rect x="312.5" y="75" width="125" height="50"/><rect x="275" y="75" width="162.5" height="50"/></g><g id="bfaa3841-18ac-4005-97ee-2373345b3c37" data-name="1左"><rect x="62.5" y="75" width="125" height="50"/><rect x="62.5" y="75" width="162.5" height="50"/></g></svg>