<svg xmlns="http://www.w3.org/2000/svg" viewBox="0 0 500 700"><g id="a18ead93-4cd9-4f38-9d98-7e845a01dd22" data-name="控制层"><g id="b7f24777-5d81-451b-b193-274af7fcb065" data-name="6中"><rect x="187.5" y="575" width="125" height="50"/></g><g id="efffe723-f502-4e73-b6de-eede681ff5e1" data-name="5中"><rect x="187.5" y="475" width="125" height="50"/></g><g id="a8f4c725-93d5-45ae-974b-2ac5b56787e0" data-name="4中"><rect x="187.5" y="375" width="125" height="50"/></g></g><g id="a2590d7d-b444-4517-a302-7531a996156a" data-name="6右"><rect x="312.5" y="575" width="125" height="50"/><rect x="275" y="575" width="162.5" height="50"/></g><g id="b89081bc-4571-483e-aba1-d74f21c3aaab" data-name="6左"><rect x="62.5" y="575" width="125" height="50"/><rect x="62.5" y="575" width="162.5" height="50"/></g><g id="bb138c95-78c0-4aed-ba01-7533a66b6664" data-name="5右"><rect x="312.5" y="475" width="125" height="50"/><rect x="275" y="475" width="162.5" height="50"/></g><g id="ed50d6a1-8693-466a-8fb3-bf10021bd2d5" data-name="5左"><rect x="62.5" y="475" width="125" height="50"/><rect x="62.5" y="475" width="162.5" height="50"/></g><g id="ad4bac27-cd8f-4352-ad54-0c74ac9557b9" data-name="4右"><rect x="312.5" y="375" width="125" height="50"/><rect x="275" y="375" width="162.5" height="50"/></g><g id="ebfbd471-bb02-426a-b299-ff270237c6ff" data-name="4左"><rect x="62.5" y="375" width="125" height="50"/><rect x="62.5" y="375" width="162.5" height="50"/></g><g id="a6aabccd-e44c-453f-9cc4-912561c021bd" data-name="3右"><rect x="312.5" y="275" width="125" height="50"/><rect x="275" y="275" width="162.5" height="50"/></g><g id="b17a4925-b4a9-4b7c-b88d-ae7427938758" data-name="3左"><rect x="62.5" y="275" width="125" height="50"/><rect x="62.5" y="275" width="162.5" height="50"/></g><g id="af838a7d-562e-4ef0-ba0e-e1de77a01b80" data-name="2右"><rect x="312.5" y="175" width="125" height="50"/><rect x="275" y="175" width="162.5" height="50"/></g><g id="ed5266c6-cb2e-42e0-9d9a-5490631fa431" data-name="2左"><rect x="62.5" y="175" width="125" height="50"/><rect x="62.5" y="175" width="162.5" height="50"/></g><g id="efced0f9-ca1f-4f00-b807-0d0d303f8ba8" data-name="1右"><rect x="312.5" y="75" width="125" height="50"/><rect x="275" y="75" width="162.5" height="50"/></g><g id="b3031b3b-ef30-4b84-b557-f164ac465200" data-name="1左"><rect x="62.5" y="75" width="125" height="50"/><rect x="62.5" y="75" width="162.5" height="50"/></g></svg>