<svg xmlns="http://www.w3.org/2000/svg" viewBox="0 0 500 700"><g id="b4510103-0b60-4ae4-b564-a485275bd3db" data-name="控制层"><g id="ab8d7d45-3a98-424a-baed-8a6b91a76ec9" data-name="3中"><rect x="187.5" y="275" width="125" height="50"/></g><g id="bf549d53-9419-4e86-8471-a464333f6fb8" data-name="2中"><rect x="187.5" y="175" width="125" height="50"/></g><g id="a1d9470f-68aa-4459-b961-2049105b4d60" data-name="1中"><rect x="187.5" y="75" width="125" height="50"/></g></g><g id="a37ca08c-39e8-4c01-80a4-e31296bd9094" data-name="6右"><rect x="312.5" y="575" width="125" height="50"/><rect x="275" y="575" width="162.5" height="50"/></g><g id="ff098578-f5ad-4f07-8897-9503a5fc5aeb" data-name="6左"><rect x="62.5" y="575" width="125" height="50"/><rect x="62.5" y="575" width="162.5" height="50"/></g><g id="a07e29ff-30c7-4baa-a841-b9d240faea56" data-name="5右"><rect x="312.5" y="475" width="125" height="50"/><rect x="275" y="475" width="162.5" height="50"/></g><g id="eebcf6e0-9a5b-4d97-8479-4656d44c8b13" data-name="5左"><rect x="62.5" y="475" width="125" height="50"/><rect x="62.5" y="475" width="162.5" height="50"/></g><g id="a3ff8a31-be35-42af-bb46-ec218d9ac1e7" data-name="4右"><rect x="312.5" y="375" width="125" height="50"/><rect x="275" y="375" width="162.5" height="50"/></g><g id="b6d52e32-a1d7-4450-8aca-35ba3123f984" data-name="4左"><rect x="62.5" y="375" width="125" height="50"/><rect x="62.5" y="375" width="162.5" height="50"/></g><g id="ae9e86e9-3c39-414f-8d21-525326fb2f6c" data-name="3右"><rect x="312.5" y="275" width="125" height="50"/><rect x="275" y="275" width="162.5" height="50"/></g><g id="bd9b0198-d972-4a9e-b949-21233adc6373" data-name="3左"><rect x="62.5" y="275" width="125" height="50"/><rect x="62.5" y="275" width="162.5" height="50"/></g><g id="a8f4ae42-8695-4ff1-bc19-01bfd8350c6e" data-name="2右"><rect x="312.5" y="175" width="125" height="50"/><rect x="275" y="175" width="162.5" height="50"/></g><g id="b573d95f-3b0e-4562-9ff5-4592d09be760" data-name="2左"><rect x="62.5" y="175" width="125" height="50"/><rect x="62.5" y="175" width="162.5" height="50"/></g><g id="f7e97ef8-8948-4885-912c-c47cf8b7aef7" data-name="1右"><rect x="312.5" y="75" width="125" height="50"/><rect x="275" y="75" width="162.5" height="50"/></g><g id="e2b0b17e-40bb-4779-aeb7-c97a8326978a" data-name="1左"><rect x="62.5" y="75" width="125" height="50"/><rect x="62.5" y="75" width="162.5" height="50"/></g></svg>