<svg xmlns="http://www.w3.org/2000/svg" viewBox="0 0 500 700"><g id="a6e12552-434b-49e9-8776-bbf01cda5259" data-name="控制层"><g id="ba982906-91a3-45a9-873e-53476a531d95" data-name="6中"><rect x="187.5" y="575" width="125" height="50"/></g><g id="bc848b44-97c4-40c6-bb7d-0ac1c8083fde" data-name="4中"><rect x="187.5" y="375" width="125" height="50"/></g><g id="fc45ce2e-9d51-4e5b-9cbb-a03cf8f0d4f0" data-name="3中"><rect x="187.5" y="275" width="125" height="50"/></g><g id="e1a260bd-26c9-4483-80c5-0fc9743d8e75" data-name="2中"><rect x="187.5" y="175" width="125" height="50"/></g><g id="a54235df-64b1-48dc-a5a3-4edf16469b46" data-name="1中"><rect x="187.5" y="75" width="125" height="50"/></g></g><g id="ba74e786-ee25-46fb-a97f-f66bf30ce7dd" data-name="6右"><rect x="312.5" y="575" width="125" height="50"/><rect x="275" y="575" width="162.5" height="50"/></g><g id="afe7ba55-62f2-4f80-934e-71138fd62588" data-name="6左"><rect x="62.5" y="575" width="125" height="50"/><rect x="62.5" y="575" width="162.5" height="50"/></g><g id="f5f54f1b-b3ad-4b18-b771-7750fd40059f" data-name="5右"><rect x="312.5" y="475" width="125" height="50"/><rect x="275" y="475" width="162.5" height="50"/></g><g id="b66ff26d-5391-421c-b193-c4a5c71aab23" data-name="5左"><rect x="62.5" y="475" width="125" height="50"/><rect x="62.5" y="475" width="162.5" height="50"/></g><g id="bd6f9aa3-3511-4f4f-8ab2-c9e377fcea65" data-name="4右"><rect x="312.5" y="375" width="125" height="50"/><rect x="275" y="375" width="162.5" height="50"/></g><g id="eceef736-9b82-4cef-9bb4-a5a17b157b17" data-name="4左"><rect x="62.5" y="375" width="125" height="50"/><rect x="62.5" y="375" width="162.5" height="50"/></g><g id="bb892b49-f095-435e-b627-6006369f12c6" data-name="3右"><rect x="312.5" y="275" width="125" height="50"/><rect x="275" y="275" width="162.5" height="50"/></g><g id="e0a40efd-d568-4766-b61f-5e5d9d6cef55" data-name="3左"><rect x="62.5" y="275" width="125" height="50"/><rect x="62.5" y="275" width="162.5" height="50"/></g><g id="a066b589-6547-4686-b056-65672d2142db" data-name="2右"><rect x="312.5" y="175" width="125" height="50"/><rect x="275" y="175" width="162.5" height="50"/></g><g id="e071b83e-85e9-4e6e-bac2-2fbf4adcd9b1" data-name="2左"><rect x="62.5" y="175" width="125" height="50"/><rect x="62.5" y="175" width="162.5" height="50"/></g><g id="f9048d08-9b9e-4ba3-8f44-035ded1db665" data-name="1右"><rect x="312.5" y="75" width="125" height="50"/><rect x="275" y="75" width="162.5" height="50"/></g><g id="bf4031d7-38bd-46a9-8974-0da982264722" data-name="1左"><rect x="62.5" y="75" width="125" height="50"/><rect x="62.5" y="75" width="162.5" height="50"/></g></svg>