<svg xmlns="http://www.w3.org/2000/svg" viewBox="0 0 500 700"><g id="babb8b0a-3697-4cf6-b8ef-98625c0c9503" data-name="控制层"><g id="b71d87c1-a73e-4fbf-b538-7854b981a431" data-name="6中"><rect x="187.5" y="575" width="125" height="50"/></g><g id="b553c303-d472-485a-8781-5ce9dff3ec87" data-name="5中"><rect x="187.5" y="475" width="125" height="50"/></g><g id="fd9f4acc-583e-4e45-bc3c-d26ceca8d06a" data-name="4中"><rect x="187.5" y="375" width="125" height="50"/></g><g id="fa0adfb5-31f3-488e-acfc-4986fd23b73f" data-name="3中"><rect x="187.5" y="275" width="125" height="50"/></g><g id="fd65355e-662a-4dd2-8dd6-0c2429252707" data-name="1中"><rect x="187.5" y="75" width="125" height="50"/></g></g><g id="ef155225-f545-4f02-904d-383948a53f4f" data-name="6右"><rect x="312.5" y="575" width="125" height="50"/><rect x="275" y="575" width="162.5" height="50"/></g><g id="b27a2f08-bf64-4550-9703-f6a6718a2848" data-name="6左"><rect x="62.5" y="575" width="125" height="50"/><rect x="62.5" y="575" width="162.5" height="50"/></g><g id="b530a9ec-5f93-46c8-b5c5-3f1e1a61730e" data-name="5右"><rect x="312.5" y="475" width="125" height="50"/><rect x="275" y="475" width="162.5" height="50"/></g><g id="aa505cb1-ca51-4257-8961-2ed1d3abfd7d" data-name="5左"><rect x="62.5" y="475" width="125" height="50"/><rect x="62.5" y="475" width="162.5" height="50"/></g><g id="ab138b03-d7af-42bf-be83-4b05eff7ee1b" data-name="4右"><rect x="312.5" y="375" width="125" height="50"/><rect x="275" y="375" width="162.5" height="50"/></g><g id="b6bf2ee9-8312-4862-8b6b-60e771ae0f49" data-name="4左"><rect x="62.5" y="375" width="125" height="50"/><rect x="62.5" y="375" width="162.5" height="50"/></g><g id="a3a12edb-ed36-4ae3-b537-b7802c99ca6a" data-name="3右"><rect x="312.5" y="275" width="125" height="50"/><rect x="275" y="275" width="162.5" height="50"/></g><g id="b294da72-480a-4949-9a71-237930874d97" data-name="3左"><rect x="62.5" y="275" width="125" height="50"/><rect x="62.5" y="275" width="162.5" height="50"/></g><g id="f9ad3b86-4a79-4622-ba72-fb561a2519df" data-name="2右"><rect x="312.5" y="175" width="125" height="50"/><rect x="275" y="175" width="162.5" height="50"/></g><g id="a0160794-1a32-4f5b-98a0-2cc25b6213b3" data-name="2左"><rect x="62.5" y="175" width="125" height="50"/><rect x="62.5" y="175" width="162.5" height="50"/></g><g id="af6586bc-c545-4c02-9976-4e88a90296c6" data-name="1右"><rect x="312.5" y="75" width="125" height="50"/><rect x="275" y="75" width="162.5" height="50"/></g><g id="e5839514-f3d4-49a2-9cf5-853a2a07c0dc" data-name="1左"><rect x="62.5" y="75" width="125" height="50"/><rect x="62.5" y="75" width="162.5" height="50"/></g></svg>