<svg xmlns="http://www.w3.org/2000/svg" viewBox="0 0 500 700"><g id="f41fee0f-dbd2-4fe0-a216-95ee314fabcc" data-name="控制层"><g id="f42cd72b-464c-4c87-af6b-36c5eb5e4717" data-name="4中"><rect x="187.5" y="375" width="125" height="50"/></g></g><g id="bd5db596-d625-41c4-af91-5a1c282b38ba" data-name="6右"><rect x="312.5" y="575" width="125" height="50"/><rect x="275" y="575" width="162.5" height="50"/></g><g id="eac7841a-152d-46e1-a499-69055c6fb405" data-name="6左"><rect x="62.5" y="575" width="125" height="50"/><rect x="62.5" y="575" width="162.5" height="50"/></g><g id="a02fa553-5cf8-4056-b5f6-b71315e8aa87" data-name="5右"><rect x="312.5" y="475" width="125" height="50"/><rect x="275" y="475" width="162.5" height="50"/></g><g id="addc8f31-1ab7-40bd-b752-e76a69a34fff" data-name="5左"><rect x="62.5" y="475" width="125" height="50"/><rect x="62.5" y="475" width="162.5" height="50"/></g><g id="f976005b-a926-4b84-8738-3c8433f2e32f" data-name="4右"><rect x="312.5" y="375" width="125" height="50"/><rect x="275" y="375" width="162.5" height="50"/></g><g id="b6fa03a3-ed82-42d5-bdd5-9c3adf91c87d" data-name="4左"><rect x="62.5" y="375" width="125" height="50"/><rect x="62.5" y="375" width="162.5" height="50"/></g><g id="fc2c6a52-73ce-471c-9ce0-a7d751b6c2fc" data-name="3右"><rect x="312.5" y="275" width="125" height="50"/><rect x="275" y="275" width="162.5" height="50"/></g><g id="fd2a8870-6d75-4830-9b83-9486b666dbce" data-name="3左"><rect x="62.5" y="275" width="125" height="50"/><rect x="62.5" y="275" width="162.5" height="50"/></g><g id="e72f4541-451a-417c-a2ae-f9de3c1af9d9" data-name="2右"><rect x="312.5" y="175" width="125" height="50"/><rect x="275" y="175" width="162.5" height="50"/></g><g id="efe4138a-20fc-4a33-a392-9274a672d2aa" data-name="2左"><rect x="62.5" y="175" width="125" height="50"/><rect x="62.5" y="175" width="162.5" height="50"/></g><g id="b283059c-b406-423f-9b49-0442b270e6c2" data-name="1右"><rect x="312.5" y="75" width="125" height="50"/><rect x="275" y="75" width="162.5" height="50"/></g><g id="e04cf137-a722-44c2-897c-501760895a20" data-name="1左"><rect x="62.5" y="75" width="125" height="50"/><rect x="62.5" y="75" width="162.5" height="50"/></g></svg>