<svg xmlns="http://www.w3.org/2000/svg" viewBox="0 0 500 700"><g id="ff029c3d-0ea6-43ad-a574-15e47e43d14d" data-name="控制层"><g id="b7c38589-e179-422d-8715-98004dfd3162" data-name="3中"><rect x="187.5" y="275" width="125" height="50"/></g></g><g id="f077bf93-f7e8-448e-9886-3abc15967c09" data-name="6右"><rect x="312.5" y="575" width="125" height="50"/><rect x="275" y="575" width="162.5" height="50"/></g><g id="b6963926-eef4-4aa1-accf-f236604b89a6" data-name="6左"><rect x="62.5" y="575" width="125" height="50"/><rect x="62.5" y="575" width="162.5" height="50"/></g><g id="b682638f-3177-4ecd-9611-9bbe0d914b55" data-name="5右"><rect x="312.5" y="475" width="125" height="50"/><rect x="275" y="475" width="162.5" height="50"/></g><g id="f5848c57-9b7e-4d0b-aa15-107e85c72f71" data-name="5左"><rect x="62.5" y="475" width="125" height="50"/><rect x="62.5" y="475" width="162.5" height="50"/></g><g id="e452bc93-c221-4cd9-9e9f-c9455168c2b5" data-name="4右"><rect x="312.5" y="375" width="125" height="50"/><rect x="275" y="375" width="162.5" height="50"/></g><g id="f2716163-1faf-4052-91bc-7d05989a7cf0" data-name="4左"><rect x="62.5" y="375" width="125" height="50"/><rect x="62.5" y="375" width="162.5" height="50"/></g><g id="ed013639-367b-4f08-b502-68713515a2b7" data-name="3右"><rect x="312.5" y="275" width="125" height="50"/><rect x="275" y="275" width="162.5" height="50"/></g><g id="a939e1b1-f9b4-4f9e-a907-860955f772e6" data-name="3左"><rect x="62.5" y="275" width="125" height="50"/><rect x="62.5" y="275" width="162.5" height="50"/></g><g id="b43ec05a-2c56-4e6c-9675-22da775db419" data-name="2右"><rect x="312.5" y="175" width="125" height="50"/><rect x="275" y="175" width="162.5" height="50"/></g><g id="aa5fc2e8-c6c1-491a-b55c-20d36fe94dd7" data-name="2左"><rect x="62.5" y="175" width="125" height="50"/><rect x="62.5" y="175" width="162.5" height="50"/></g><g id="ab82985a-f8c4-4b0a-a745-8810c72fcc6e" data-name="1右"><rect x="312.5" y="75" width="125" height="50"/><rect x="275" y="75" width="162.5" height="50"/></g><g id="b603f2a6-0028-4a4f-8ad5-05bf1fd8da61" data-name="1左"><rect x="62.5" y="75" width="125" height="50"/><rect x="62.5" y="75" width="162.5" height="50"/></g></svg>