<svg xmlns="http://www.w3.org/2000/svg" viewBox="0 0 500 700"><g id="aa7f1442-4ab1-4e6c-b8f4-efdbf797eede" data-name="控制层"><g id="b790ca21-f3a3-4b84-a30e-a52027709c14" data-name="6中"><rect x="187.5" y="575" width="125" height="50"/></g><g id="a3da3573-c2b2-4e47-a4fe-04f7fa0216f0" data-name="3中"><rect x="187.5" y="275" width="125" height="50"/></g><g id="e9118015-8725-4c8d-9380-b064a4d81444" data-name="2中"><rect x="187.5" y="175" width="125" height="50"/></g></g><g id="a48e5c69-fae7-4de5-ab05-a7fb40fa6a3e" data-name="6右"><rect x="312.5" y="575" width="125" height="50"/><rect x="275" y="575" width="162.5" height="50"/></g><g id="a49eb60e-e231-4844-a115-9fdd2be9ba7c" data-name="6左"><rect x="62.5" y="575" width="125" height="50"/><rect x="62.5" y="575" width="162.5" height="50"/></g><g id="ac82ff88-c36d-4cf2-8e26-95cff820efb9" data-name="5右"><rect x="312.5" y="475" width="125" height="50"/><rect x="275" y="475" width="162.5" height="50"/></g><g id="e5a439cc-37f5-4947-9f78-33a53cc639a0" data-name="5左"><rect x="62.5" y="475" width="125" height="50"/><rect x="62.5" y="475" width="162.5" height="50"/></g><g id="e10eea3e-d482-4b32-a4cc-d75eb0914baa" data-name="4右"><rect x="312.5" y="375" width="125" height="50"/><rect x="275" y="375" width="162.5" height="50"/></g><g id="e7e921e3-d529-420c-a152-c74c76296824" data-name="4左"><rect x="62.5" y="375" width="125" height="50"/><rect x="62.5" y="375" width="162.5" height="50"/></g><g id="aee813c8-c7d0-4d9e-8a68-b6f72a7b0260" data-name="3右"><rect x="312.5" y="275" width="125" height="50"/><rect x="275" y="275" width="162.5" height="50"/></g><g id="e247831e-e024-4e22-bded-1915306c89c9" data-name="3左"><rect x="62.5" y="275" width="125" height="50"/><rect x="62.5" y="275" width="162.5" height="50"/></g><g id="a66e5bf4-1997-4e74-9c36-9fff75ccd44a" data-name="2右"><rect x="312.5" y="175" width="125" height="50"/><rect x="275" y="175" width="162.5" height="50"/></g><g id="a46950c4-c767-43a2-a56b-3a39d0dd38d7" data-name="2左"><rect x="62.5" y="175" width="125" height="50"/><rect x="62.5" y="175" width="162.5" height="50"/></g><g id="b144e070-d21d-4e1e-b314-7cae1f9a7881" data-name="1右"><rect x="312.5" y="75" width="125" height="50"/><rect x="275" y="75" width="162.5" height="50"/></g><g id="bdcca857-bd8c-4ae7-b527-4b3d51aac3f1" data-name="1左"><rect x="62.5" y="75" width="125" height="50"/><rect x="62.5" y="75" width="162.5" height="50"/></g></svg>