<svg xmlns="http://www.w3.org/2000/svg" viewBox="0 0 500 700"><g id="bb5ecdd0-a641-46e9-a35a-8bc909cfdef4" data-name="控制层"><g id="a093f941-dca5-48ab-bf70-14da0b99125b" data-name="5中"><rect x="187.5" y="475" width="125" height="50"/></g><g id="e9a88eb6-cf50-4ae2-b595-a14c222facea" data-name="4中"><rect x="187.5" y="375" width="125" height="50"/></g><g id="faefcc7e-bde3-4296-85a3-c0fd5c98f727" data-name="1中"><rect x="187.5" y="75" width="125" height="50"/></g></g><g id="bef8c72e-049c-4535-b7e7-4ee0c65ca768" data-name="6右"><rect x="312.5" y="575" width="125" height="50"/><rect x="275" y="575" width="162.5" height="50"/></g><g id="e498b404-174b-4107-863c-7ac1a2c6ceec" data-name="6左"><rect x="62.5" y="575" width="125" height="50"/><rect x="62.5" y="575" width="162.5" height="50"/></g><g id="ab7a1782-ce7c-4192-9bce-e68d1035e208" data-name="5右"><rect x="312.5" y="475" width="125" height="50"/><rect x="275" y="475" width="162.5" height="50"/></g><g id="ae71e220-4577-454e-a5ea-39c236476dd6" data-name="5左"><rect x="62.5" y="475" width="125" height="50"/><rect x="62.5" y="475" width="162.5" height="50"/></g><g id="e7563d87-1de4-4529-a762-f401870b1268" data-name="4右"><rect x="312.5" y="375" width="125" height="50"/><rect x="275" y="375" width="162.5" height="50"/></g><g id="ea786d02-a70b-43c8-8146-1c2081c60372" data-name="4左"><rect x="62.5" y="375" width="125" height="50"/><rect x="62.5" y="375" width="162.5" height="50"/></g><g id="f9f9d04d-d5f7-4d28-a8a0-e637446704e5" data-name="3右"><rect x="312.5" y="275" width="125" height="50"/><rect x="275" y="275" width="162.5" height="50"/></g><g id="befc853e-bdea-43f4-89ff-832cd9054b47" data-name="3左"><rect x="62.5" y="275" width="125" height="50"/><rect x="62.5" y="275" width="162.5" height="50"/></g><g id="bd98e208-7ba2-4e51-ad38-6a7fae24b9b5" data-name="2右"><rect x="312.5" y="175" width="125" height="50"/><rect x="275" y="175" width="162.5" height="50"/></g><g id="b53d21f8-1bee-4ef8-8706-c91805db94cc" data-name="2左"><rect x="62.5" y="175" width="125" height="50"/><rect x="62.5" y="175" width="162.5" height="50"/></g><g id="b314b476-eac6-45eb-a3f3-1fa8bdb41389" data-name="1右"><rect x="312.5" y="75" width="125" height="50"/><rect x="275" y="75" width="162.5" height="50"/></g><g id="aa3c48bb-9339-411d-9e42-e134bb027e1f" data-name="1左"><rect x="62.5" y="75" width="125" height="50"/><rect x="62.5" y="75" width="162.5" height="50"/></g></svg>