<svg xmlns="http://www.w3.org/2000/svg" viewBox="0 0 500 700"><g id="eef7a502-3397-4963-bbb9-a0e8485b55de" data-name="控制层"><g id="e13100f5-81b1-40c2-bd99-80e29d4419fe" data-name="6中"><rect x="187.5" y="575" width="125" height="50"/></g><g id="a382a3a6-6161-47a0-b72c-aa3b5eb361b8" data-name="5中"><rect x="187.5" y="475" width="125" height="50"/></g></g><g id="b8e39198-e128-462d-bf9f-7b2015caf9cf" data-name="6右"><rect x="312.5" y="575" width="125" height="50"/><rect x="275" y="575" width="162.5" height="50"/></g><g id="f5bbc677-4b8f-482a-8c58-066adffdc9b8" data-name="6左"><rect x="62.5" y="575" width="125" height="50"/><rect x="62.5" y="575" width="162.5" height="50"/></g><g id="fb378016-e161-4508-9323-cb192553cb06" data-name="5右"><rect x="312.5" y="475" width="125" height="50"/><rect x="275" y="475" width="162.5" height="50"/></g><g id="b9e94398-a7d2-42d5-b936-52ebe8e29a24" data-name="5左"><rect x="62.5" y="475" width="125" height="50"/><rect x="62.5" y="475" width="162.5" height="50"/></g><g id="a9296bc5-4033-4105-800c-28bb5630182a" data-name="4右"><rect x="312.5" y="375" width="125" height="50"/><rect x="275" y="375" width="162.5" height="50"/></g><g id="a98e0039-80cf-449e-9a30-425dd15f8df9" data-name="4左"><rect x="62.5" y="375" width="125" height="50"/><rect x="62.5" y="375" width="162.5" height="50"/></g><g id="beb905c6-7ec6-4c95-bdaa-86d2eb9dadab" data-name="3右"><rect x="312.5" y="275" width="125" height="50"/><rect x="275" y="275" width="162.5" height="50"/></g><g id="f479fcfe-a413-43bf-ba62-84c54e8c98a9" data-name="3左"><rect x="62.5" y="275" width="125" height="50"/><rect x="62.5" y="275" width="162.5" height="50"/></g><g id="e35b26db-cb99-4e55-956b-d5dd9f560fbe" data-name="2右"><rect x="312.5" y="175" width="125" height="50"/><rect x="275" y="175" width="162.5" height="50"/></g><g id="af1ad659-cdfe-43a8-bf65-ac791a16a43f" data-name="2左"><rect x="62.5" y="175" width="125" height="50"/><rect x="62.5" y="175" width="162.5" height="50"/></g><g id="ae2cc553-43d8-47ae-91b0-27f56863a3e4" data-name="1右"><rect x="312.5" y="75" width="125" height="50"/><rect x="275" y="75" width="162.5" height="50"/></g><g id="af461904-b4bb-4981-b0ba-ba539e61074b" data-name="1左"><rect x="62.5" y="75" width="125" height="50"/><rect x="62.5" y="75" width="162.5" height="50"/></g></svg>