<svg xmlns="http://www.w3.org/2000/svg" viewBox="0 0 500 700"><g id="b106da89-8caa-46a0-83a0-718b12224006" data-name="控制层"><g id="b3bab391-affa-4474-bf08-131935e4639b" data-name="2中"><rect x="187.5" y="175" width="125" height="50"/></g><g id="a0ec2c16-d3a4-4c8c-88ca-015fe55a1522" data-name="1中"><rect x="187.5" y="75" width="125" height="50"/></g></g><g id="bdf74cb1-6dcc-4c35-bf96-2c07a5493912" data-name="6右"><rect x="312.5" y="575" width="125" height="50"/><rect x="275" y="575" width="162.5" height="50"/></g><g id="b07f507b-9a8d-4a01-a66d-73f1289830aa" data-name="6左"><rect x="62.5" y="575" width="125" height="50"/><rect x="62.5" y="575" width="162.5" height="50"/></g><g id="e2469113-44e5-44c1-b605-59fb593d5a69" data-name="5右"><rect x="312.5" y="475" width="125" height="50"/><rect x="275" y="475" width="162.5" height="50"/></g><g id="bdb234f1-c725-4f2b-bc65-d3908c60c7d4" data-name="5左"><rect x="62.5" y="475" width="125" height="50"/><rect x="62.5" y="475" width="162.5" height="50"/></g><g id="a474d980-6385-40a0-b760-fddf55a079bf" data-name="4右"><rect x="312.5" y="375" width="125" height="50"/><rect x="275" y="375" width="162.5" height="50"/></g><g id="b3c4ea31-0ffd-4f02-9882-3d24c426038d" data-name="4左"><rect x="62.5" y="375" width="125" height="50"/><rect x="62.5" y="375" width="162.5" height="50"/></g><g id="bf858af4-e6a8-429f-a186-a8b685477042" data-name="3右"><rect x="312.5" y="275" width="125" height="50"/><rect x="275" y="275" width="162.5" height="50"/></g><g id="e514f635-9f7a-4328-99b4-b3aee6a56e93" data-name="3左"><rect x="62.5" y="275" width="125" height="50"/><rect x="62.5" y="275" width="162.5" height="50"/></g><g id="a7ea48ef-7cf7-4a7f-b89c-d16bd4784f6f" data-name="2右"><rect x="312.5" y="175" width="125" height="50"/><rect x="275" y="175" width="162.5" height="50"/></g><g id="ae2e02c3-a2f7-4d57-bae8-453ae34aa362" data-name="2左"><rect x="62.5" y="175" width="125" height="50"/><rect x="62.5" y="175" width="162.5" height="50"/></g><g id="b34758fa-392a-4b48-8f43-b772e7a7eda0" data-name="1右"><rect x="312.5" y="75" width="125" height="50"/><rect x="275" y="75" width="162.5" height="50"/></g><g id="bbabd2d3-8137-4d5b-a7cf-758a37275dc0" data-name="1左"><rect x="62.5" y="75" width="125" height="50"/><rect x="62.5" y="75" width="162.5" height="50"/></g></svg>