<svg xmlns="http://www.w3.org/2000/svg" viewBox="0 0 500 700"><g id="bf4c288b-dd49-4032-8450-d2c22afcf8a4" data-name="控制层"><g id="ffcfc29c-9802-4601-bd88-8ac36d626b1c" data-name="6中"><rect x="187.5" y="575" width="125" height="50"/></g><g id="b4d93b0d-e352-4882-bd76-3bcaef4b5f40" data-name="3中"><rect x="187.5" y="275" width="125" height="50"/></g><g id="a5a208f7-d5a6-4b6f-8516-7bcc777f055e" data-name="1中"><rect x="187.5" y="75" width="125" height="50"/></g></g><g id="eaa840af-4b1b-49f5-bc94-4bf59ce4feb2" data-name="6右"><rect x="312.5" y="575" width="125" height="50"/><rect x="275" y="575" width="162.5" height="50"/></g><g id="f5a6f65f-4cdf-4387-a8e2-96ff07916757" data-name="6左"><rect x="62.5" y="575" width="125" height="50"/><rect x="62.5" y="575" width="162.5" height="50"/></g><g id="f4ce197f-f45f-4e24-b910-ae163bd92855" data-name="5右"><rect x="312.5" y="475" width="125" height="50"/><rect x="275" y="475" width="162.5" height="50"/></g><g id="bdeeffd0-35c5-4350-8c87-7706c8481705" data-name="5左"><rect x="62.5" y="475" width="125" height="50"/><rect x="62.5" y="475" width="162.5" height="50"/></g><g id="aaad4200-db67-4f6f-ba01-3e7a75dab90f" data-name="4右"><rect x="312.5" y="375" width="125" height="50"/><rect x="275" y="375" width="162.5" height="50"/></g><g id="b15834e5-432c-4992-9d16-254009f61a20" data-name="4左"><rect x="62.5" y="375" width="125" height="50"/><rect x="62.5" y="375" width="162.5" height="50"/></g><g id="b262d8f3-6114-4448-8047-39e07db65685" data-name="3右"><rect x="312.5" y="275" width="125" height="50"/><rect x="275" y="275" width="162.5" height="50"/></g><g id="b26f8bce-bff6-4c95-a7e5-2c16e9c658d0" data-name="3左"><rect x="62.5" y="275" width="125" height="50"/><rect x="62.5" y="275" width="162.5" height="50"/></g><g id="acb312fd-2deb-4074-bcd9-27f250262adf" data-name="2右"><rect x="312.5" y="175" width="125" height="50"/><rect x="275" y="175" width="162.5" height="50"/></g><g id="ba152c4f-76b9-4f7e-a89a-b72e1bfb7c40" data-name="2左"><rect x="62.5" y="175" width="125" height="50"/><rect x="62.5" y="175" width="162.5" height="50"/></g><g id="b1061c0d-5e39-4280-bfdd-82aa9272d1d9" data-name="1右"><rect x="312.5" y="75" width="125" height="50"/><rect x="275" y="75" width="162.5" height="50"/></g><g id="b71bc0e7-791e-4f57-9889-2e3b6226c3fe" data-name="1左"><rect x="62.5" y="75" width="125" height="50"/><rect x="62.5" y="75" width="162.5" height="50"/></g></svg>