<svg xmlns="http://www.w3.org/2000/svg" viewBox="0 0 500 700"><g id="bc880750-a7fe-4ba8-9e12-afa6bc8e899e" data-name="控制层"><g id="a137b5d8-526b-4c7f-bc7d-9a7809580cd0" data-name="6中"><rect x="187.5" y="575" width="125" height="50"/></g><g id="efe36aba-8ab9-494f-b897-57b46f8a130b" data-name="4中"><rect x="187.5" y="375" width="125" height="50"/></g><g id="ba06cdac-9dca-4f77-8296-0e80ef3d12dd" data-name="1中"><rect x="187.5" y="75" width="125" height="50"/></g></g><g id="e10b16ca-18e3-4b56-9f85-d7aff9dfb061" data-name="6右"><rect x="312.5" y="575" width="125" height="50"/><rect x="275" y="575" width="162.5" height="50"/></g><g id="a75cf6ac-7631-4f25-855f-553559ddfdab" data-name="6左"><rect x="62.5" y="575" width="125" height="50"/><rect x="62.5" y="575" width="162.5" height="50"/></g><g id="bf5d26ce-e05c-4d17-bf7d-d945f67a85cc" data-name="5右"><rect x="312.5" y="475" width="125" height="50"/><rect x="275" y="475" width="162.5" height="50"/></g><g id="ec566305-9344-4e67-b17b-3be1c4a19df6" data-name="5左"><rect x="62.5" y="475" width="125" height="50"/><rect x="62.5" y="475" width="162.5" height="50"/></g><g id="a135ed12-e4c4-442b-9ed6-914b140be2a6" data-name="4右"><rect x="312.5" y="375" width="125" height="50"/><rect x="275" y="375" width="162.5" height="50"/></g><g id="e3d6067a-6562-41f9-aff9-8be6a983ef6c" data-name="4左"><rect x="62.5" y="375" width="125" height="50"/><rect x="62.5" y="375" width="162.5" height="50"/></g><g id="f0a79d35-39b7-4fa7-a725-bb34399f85d5" data-name="3右"><rect x="312.5" y="275" width="125" height="50"/><rect x="275" y="275" width="162.5" height="50"/></g><g id="f0d0e4f5-0705-42ec-9fb2-ae1ccee50f37" data-name="3左"><rect x="62.5" y="275" width="125" height="50"/><rect x="62.5" y="275" width="162.5" height="50"/></g><g id="e229ba6b-10a8-4154-8981-daeed03e286e" data-name="2右"><rect x="312.5" y="175" width="125" height="50"/><rect x="275" y="175" width="162.5" height="50"/></g><g id="af107cde-7cba-405f-b930-8fd130187bc4" data-name="2左"><rect x="62.5" y="175" width="125" height="50"/><rect x="62.5" y="175" width="162.5" height="50"/></g><g id="ba363315-fded-4ab2-9002-9cb1999a970d" data-name="1右"><rect x="312.5" y="75" width="125" height="50"/><rect x="275" y="75" width="162.5" height="50"/></g><g id="f3d0a5db-ab7f-4c76-86c4-8dd2a149568e" data-name="1左"><rect x="62.5" y="75" width="125" height="50"/><rect x="62.5" y="75" width="162.5" height="50"/></g></svg>