<svg xmlns="http://www.w3.org/2000/svg" viewBox="0 0 500 700"><g id="a9e36b3a-4ae6-40ab-bb4b-5254f285b29e" data-name="控制层"><g id="b20cb04e-e1ca-407f-8ad6-70cf6a70ee2e" data-name="1中"><rect x="187.5" y="75" width="125" height="50"/></g></g><g id="ffb5eca8-f3b6-4485-9de6-70d83276ae35" data-name="6右"><rect x="312.5" y="575" width="125" height="50"/><rect x="275" y="575" width="162.5" height="50"/></g><g id="e6465a88-cabb-4731-ab0a-93ff0b01a3e1" data-name="6左"><rect x="62.5" y="575" width="125" height="50"/><rect x="62.5" y="575" width="162.5" height="50"/></g><g id="e836b0f7-3139-4957-bd59-a268d186959f" data-name="5右"><rect x="312.5" y="475" width="125" height="50"/><rect x="275" y="475" width="162.5" height="50"/></g><g id="b6501574-a773-4218-a578-b5dd3ad67a0f" data-name="5左"><rect x="62.5" y="475" width="125" height="50"/><rect x="62.5" y="475" width="162.5" height="50"/></g><g id="eded4849-3cb7-4bb5-90a1-5265c7194a71" data-name="4右"><rect x="312.5" y="375" width="125" height="50"/><rect x="275" y="375" width="162.5" height="50"/></g><g id="a744076a-36e2-4b49-9a4d-218cabdf488c" data-name="4左"><rect x="62.5" y="375" width="125" height="50"/><rect x="62.5" y="375" width="162.5" height="50"/></g><g id="eedc5d16-99a4-4755-9c40-1e7b71726d7e" data-name="3右"><rect x="312.5" y="275" width="125" height="50"/><rect x="275" y="275" width="162.5" height="50"/></g><g id="ffb15e20-4d91-4115-a1db-b6e2f3c75efb" data-name="3左"><rect x="62.5" y="275" width="125" height="50"/><rect x="62.5" y="275" width="162.5" height="50"/></g><g id="a1631db7-696f-4e1e-ae0a-fc2ada62c36f" data-name="2右"><rect x="312.5" y="175" width="125" height="50"/><rect x="275" y="175" width="162.5" height="50"/></g><g id="b84e3a9b-545b-4421-b667-4b277e1cb11b" data-name="2左"><rect x="62.5" y="175" width="125" height="50"/><rect x="62.5" y="175" width="162.5" height="50"/></g><g id="ab0075a8-a0a0-489b-9593-1cbc64c7c6b9" data-name="1右"><rect x="312.5" y="75" width="125" height="50"/><rect x="275" y="75" width="162.5" height="50"/></g><g id="a9796515-8497-425e-adea-8c34effa5e42" data-name="1左"><rect x="62.5" y="75" width="125" height="50"/><rect x="62.5" y="75" width="162.5" height="50"/></g></svg>