<svg xmlns="http://www.w3.org/2000/svg" viewBox="0 0 500 700"><g id="aed39f49-0881-4215-bbfd-809bd9929fee" data-name="控制层"><g id="a9ec335b-4e66-4cc1-aaff-a6509fd631b5" data-name="6中"><rect x="187.5" y="575" width="125" height="50"/></g></g><g id="bd31be5a-8278-4606-ae41-b002ea58567f" data-name="6右"><rect x="312.5" y="575" width="125" height="50"/><rect x="275" y="575" width="162.5" height="50"/></g><g id="aad17a63-14f9-4dc3-9ff3-4a872a52ba87" data-name="6左"><rect x="62.5" y="575" width="125" height="50"/><rect x="62.5" y="575" width="162.5" height="50"/></g><g id="f8df965f-4424-4754-a8ff-59172e998e3a" data-name="5右"><rect x="312.5" y="475" width="125" height="50"/><rect x="275" y="475" width="162.5" height="50"/></g><g id="a48c4b44-ec6e-4530-b2be-8bc5365656d3" data-name="5左"><rect x="62.5" y="475" width="125" height="50"/><rect x="62.5" y="475" width="162.5" height="50"/></g><g id="b46c515a-6bd9-4df3-a71e-cca533496180" data-name="4右"><rect x="312.5" y="375" width="125" height="50"/><rect x="275" y="375" width="162.5" height="50"/></g><g id="fc60b82d-19f7-4a1c-9f6f-3f9c8adaf4a2" data-name="4左"><rect x="62.5" y="375" width="125" height="50"/><rect x="62.5" y="375" width="162.5" height="50"/></g><g id="ed316e61-81ad-4b67-9e51-fccea54e985a" data-name="3右"><rect x="312.5" y="275" width="125" height="50"/><rect x="275" y="275" width="162.5" height="50"/></g><g id="b9193b66-cd89-433c-9647-173e8ed4bb49" data-name="3左"><rect x="62.5" y="275" width="125" height="50"/><rect x="62.5" y="275" width="162.5" height="50"/></g><g id="f0f8d57d-b9a8-4e94-9c3e-4713129245c8" data-name="2右"><rect x="312.5" y="175" width="125" height="50"/><rect x="275" y="175" width="162.5" height="50"/></g><g id="e3be6d06-7078-4da0-86ca-7d7b2ab3055b" data-name="2左"><rect x="62.5" y="175" width="125" height="50"/><rect x="62.5" y="175" width="162.5" height="50"/></g><g id="e0d3ff06-dc09-4407-94be-f6c5b8138e21" data-name="1右"><rect x="312.5" y="75" width="125" height="50"/><rect x="275" y="75" width="162.5" height="50"/></g><g id="a11c0134-a535-4737-a508-c7c129130a58" data-name="1左"><rect x="62.5" y="75" width="125" height="50"/><rect x="62.5" y="75" width="162.5" height="50"/></g></svg>