<svg xmlns="http://www.w3.org/2000/svg" viewBox="0 0 500 700"><g id="e1de3822-7761-4554-b8a0-fc0e102c7723" data-name="控制层"><g id="b233547b-2ee4-4c4d-ab83-63184087721c" data-name="6中"><rect x="187.5" y="575" width="125" height="50"/></g><g id="b80a9158-6bbc-478a-8c36-21c6aebf998a" data-name="3中"><rect x="187.5" y="275" width="125" height="50"/></g><g id="a64becfd-ed6d-4cf1-90f6-89509c396fea" data-name="2中"><rect x="187.5" y="175" width="125" height="50"/></g><g id="f2332df3-eec8-4de2-a807-20df8acec2f5" data-name="1中"><rect x="187.5" y="75" width="125" height="50"/></g></g><g id="e972d9b3-c7da-41b7-8c01-aabf4a3d5889" data-name="6右"><rect x="312.5" y="575" width="125" height="50"/><rect x="275" y="575" width="162.5" height="50"/></g><g id="f84c101e-13ff-4ba6-9e00-16d3c1c8d7ce" data-name="6左"><rect x="62.5" y="575" width="125" height="50"/><rect x="62.5" y="575" width="162.5" height="50"/></g><g id="b4a90eac-0862-43b9-af25-cc9f535b2ef9" data-name="5右"><rect x="312.5" y="475" width="125" height="50"/><rect x="275" y="475" width="162.5" height="50"/></g><g id="ebb75a37-67f8-4db6-9890-cd7729b062fa" data-name="5左"><rect x="62.5" y="475" width="125" height="50"/><rect x="62.5" y="475" width="162.5" height="50"/></g><g id="bba07b64-29f0-4c68-b30b-605e53fa813e" data-name="4右"><rect x="312.5" y="375" width="125" height="50"/><rect x="275" y="375" width="162.5" height="50"/></g><g id="b47a146e-3749-4f9c-abe3-12c57a960a6e" data-name="4左"><rect x="62.5" y="375" width="125" height="50"/><rect x="62.5" y="375" width="162.5" height="50"/></g><g id="a2def59c-f45a-4e45-b2c6-5714d6e63c68" data-name="3右"><rect x="312.5" y="275" width="125" height="50"/><rect x="275" y="275" width="162.5" height="50"/></g><g id="a8abc830-ba37-4138-9d4e-f9148a5de097" data-name="3左"><rect x="62.5" y="275" width="125" height="50"/><rect x="62.5" y="275" width="162.5" height="50"/></g><g id="b889b247-c380-4a63-add8-bd75a21e3a39" data-name="2右"><rect x="312.5" y="175" width="125" height="50"/><rect x="275" y="175" width="162.5" height="50"/></g><g id="a7047740-f54c-435a-bbc2-bb1fea7cc1ad" data-name="2左"><rect x="62.5" y="175" width="125" height="50"/><rect x="62.5" y="175" width="162.5" height="50"/></g><g id="ba9a7a0e-474a-4c1d-aafd-12e9eebd0663" data-name="1右"><rect x="312.5" y="75" width="125" height="50"/><rect x="275" y="75" width="162.5" height="50"/></g><g id="b42987ba-5484-4276-beb0-001740c36eff" data-name="1左"><rect x="62.5" y="75" width="125" height="50"/><rect x="62.5" y="75" width="162.5" height="50"/></g></svg>