<svg xmlns="http://www.w3.org/2000/svg" viewBox="0 0 500 700"><g id="a8d15b16-a76c-4629-bcf4-ea7ba2fafba6" data-name="控制层"><g id="bc9e1b8f-a9a0-4fad-aaa4-9b6e29a0e5b8" data-name="6中"><rect x="187.5" y="575" width="125" height="50"/></g><g id="bd33bf28-9b0c-415b-970e-a0335d2998b4" data-name="5中"><rect x="187.5" y="475" width="125" height="50"/></g><g id="b1a5f456-11ed-4893-83ac-63c845ef72ce" data-name="4中"><rect x="187.5" y="375" width="125" height="50"/></g><g id="b771336b-9198-4891-ae3c-52cd95f18f8d" data-name="1中"><rect x="187.5" y="75" width="125" height="50"/></g></g><g id="a5ac924a-e24f-4cd8-a6ac-f9117ea7f37d" data-name="6右"><rect x="312.5" y="575" width="125" height="50"/><rect x="275" y="575" width="162.5" height="50"/></g><g id="af993ac7-6af5-4dca-8faa-8aa4cff2268c" data-name="6左"><rect x="62.5" y="575" width="125" height="50"/><rect x="62.5" y="575" width="162.5" height="50"/></g><g id="b651471d-aaae-4042-b592-255eebf4e94b" data-name="5右"><rect x="312.5" y="475" width="125" height="50"/><rect x="275" y="475" width="162.5" height="50"/></g><g id="a86243c2-43e7-4712-b0c5-1a2eb3b842ea" data-name="5左"><rect x="62.5" y="475" width="125" height="50"/><rect x="62.5" y="475" width="162.5" height="50"/></g><g id="bfe965fe-8081-44b9-b68b-ae1c8ddabf49" data-name="4右"><rect x="312.5" y="375" width="125" height="50"/><rect x="275" y="375" width="162.5" height="50"/></g><g id="a3923b44-0731-420a-acc6-12814b187ef0" data-name="4左"><rect x="62.5" y="375" width="125" height="50"/><rect x="62.5" y="375" width="162.5" height="50"/></g><g id="eedea9e8-d65b-40de-ab94-30535be5a38d" data-name="3右"><rect x="312.5" y="275" width="125" height="50"/><rect x="275" y="275" width="162.5" height="50"/></g><g id="f0a05a6e-0763-40c1-8180-4ef6049e93d7" data-name="3左"><rect x="62.5" y="275" width="125" height="50"/><rect x="62.5" y="275" width="162.5" height="50"/></g><g id="f23d8d93-e0ea-4b93-b294-96447e6f4a39" data-name="2右"><rect x="312.5" y="175" width="125" height="50"/><rect x="275" y="175" width="162.5" height="50"/></g><g id="a2063c6e-f2b0-4c73-84fd-c7c7ac182b2f" data-name="2左"><rect x="62.5" y="175" width="125" height="50"/><rect x="62.5" y="175" width="162.5" height="50"/></g><g id="b7d5b97d-080e-4b4c-95c5-1081343d04da" data-name="1右"><rect x="312.5" y="75" width="125" height="50"/><rect x="275" y="75" width="162.5" height="50"/></g><g id="b5fe6b70-a5ba-487c-8422-e170c45a3ecc" data-name="1左"><rect x="62.5" y="75" width="125" height="50"/><rect x="62.5" y="75" width="162.5" height="50"/></g></svg>