<svg xmlns="http://www.w3.org/2000/svg" viewBox="0 0 500 700"><g id="ec2f2466-0c49-42b1-9977-c975e0f86eb8" data-name="控制层"><g id="af58eca8-b2e2-4956-af71-f1fef9f81ebc" data-name="6中"><rect x="187.5" y="575" width="125" height="50"/></g><g id="af453311-6660-4f98-b08b-e6c432792fd6" data-name="1中"><rect x="187.5" y="75" width="125" height="50"/></g></g><g id="bed36a9e-c88d-451a-8db2-b0f34c4a28ad" data-name="6右"><rect x="312.5" y="575" width="125" height="50"/><rect x="275" y="575" width="162.5" height="50"/></g><g id="fd0f6418-c61e-47b6-ad02-012274f8fafb" data-name="6左"><rect x="62.5" y="575" width="125" height="50"/><rect x="62.5" y="575" width="162.5" height="50"/></g><g id="bbf7d80c-afbb-47c2-a4a1-893c93b5aed2" data-name="5右"><rect x="312.5" y="475" width="125" height="50"/><rect x="275" y="475" width="162.5" height="50"/></g><g id="b06c4300-7552-4ba7-a1b1-0023566eeba1" data-name="5左"><rect x="62.5" y="475" width="125" height="50"/><rect x="62.5" y="475" width="162.5" height="50"/></g><g id="f8792acf-8746-45d7-adcf-7e4b061d0e13" data-name="4右"><rect x="312.5" y="375" width="125" height="50"/><rect x="275" y="375" width="162.5" height="50"/></g><g id="a5b91a45-4f1b-48dd-8c75-17dd2f925cb1" data-name="4左"><rect x="62.5" y="375" width="125" height="50"/><rect x="62.5" y="375" width="162.5" height="50"/></g><g id="abf42957-f66e-42ba-ab10-232ec3c6fbb7" data-name="3右"><rect x="312.5" y="275" width="125" height="50"/><rect x="275" y="275" width="162.5" height="50"/></g><g id="ba57e27c-69c5-4ae7-91c2-bbc27e192eb1" data-name="3左"><rect x="62.5" y="275" width="125" height="50"/><rect x="62.5" y="275" width="162.5" height="50"/></g><g id="bf4af8ca-59e9-4ff9-babd-fa5a8ae39163" data-name="2右"><rect x="312.5" y="175" width="125" height="50"/><rect x="275" y="175" width="162.5" height="50"/></g><g id="ef2ad4ff-3080-4d13-b5ae-a5990df1d16d" data-name="2左"><rect x="62.5" y="175" width="125" height="50"/><rect x="62.5" y="175" width="162.5" height="50"/></g><g id="a9689064-3577-4b71-a746-a73fa6d97727" data-name="1右"><rect x="312.5" y="75" width="125" height="50"/><rect x="275" y="75" width="162.5" height="50"/></g><g id="e97b6212-482c-4286-98fc-94ca0ba0a355" data-name="1左"><rect x="62.5" y="75" width="125" height="50"/><rect x="62.5" y="75" width="162.5" height="50"/></g></svg>