<svg xmlns="http://www.w3.org/2000/svg" viewBox="0 0 500 700"><g id="bbf1e324-0a18-4b28-ae59-593f781f5e4f" data-name="控制层"><g id="b848550a-9bfa-41a9-8dd2-02617f65c69b" data-name="5中"><rect x="187.5" y="475" width="125" height="50"/></g><g id="a482ae6e-a8b2-4a20-9355-c1bab3865bd9" data-name="4中"><rect x="187.5" y="375" width="125" height="50"/></g><g id="a10499c8-85db-4d6e-878a-46e19829fa0d" data-name="3中"><rect x="187.5" y="275" width="125" height="50"/></g><g id="b54ab3a7-af8b-470a-8d56-f4d4e3e99618" data-name="2中"><rect x="187.5" y="175" width="125" height="50"/></g></g><g id="bb4b4169-3fa7-4cee-836b-045f50b59b6c" data-name="6右"><rect x="312.5" y="575" width="125" height="50"/><rect x="275" y="575" width="162.5" height="50"/></g><g id="e6151e47-fd42-4c96-bd43-2e2a42e1ef19" data-name="6左"><rect x="62.5" y="575" width="125" height="50"/><rect x="62.5" y="575" width="162.5" height="50"/></g><g id="bb45ef78-0b06-422c-8623-b514c9e4cf21" data-name="5右"><rect x="312.5" y="475" width="125" height="50"/><rect x="275" y="475" width="162.5" height="50"/></g><g id="a2bb4e33-4b42-45bb-a0af-3326d39d5692" data-name="5左"><rect x="62.5" y="475" width="125" height="50"/><rect x="62.5" y="475" width="162.5" height="50"/></g><g id="fe95580e-2bda-4c09-bfbe-41d5ca584858" data-name="4右"><rect x="312.5" y="375" width="125" height="50"/><rect x="275" y="375" width="162.5" height="50"/></g><g id="ee8b775f-82cd-4b94-b342-4c1f1312821e" data-name="4左"><rect x="62.5" y="375" width="125" height="50"/><rect x="62.5" y="375" width="162.5" height="50"/></g><g id="ac7d4d33-71fc-44bb-8c80-ce8aede845bf" data-name="3右"><rect x="312.5" y="275" width="125" height="50"/><rect x="275" y="275" width="162.5" height="50"/></g><g id="affd8950-b598-41d6-8074-c8be0ce0c2c8" data-name="3左"><rect x="62.5" y="275" width="125" height="50"/><rect x="62.5" y="275" width="162.5" height="50"/></g><g id="a4234dad-2bf6-4df9-a836-cbed2f1b2aa3" data-name="2右"><rect x="312.5" y="175" width="125" height="50"/><rect x="275" y="175" width="162.5" height="50"/></g><g id="a18dfa61-3207-4832-b9a5-7091b65b4aaf" data-name="2左"><rect x="62.5" y="175" width="125" height="50"/><rect x="62.5" y="175" width="162.5" height="50"/></g><g id="e4c74985-eced-4d06-8596-3480cdfbcdb6" data-name="1右"><rect x="312.5" y="75" width="125" height="50"/><rect x="275" y="75" width="162.5" height="50"/></g><g id="fb120ecc-ad67-472e-bdbb-e012fac44af7" data-name="1左"><rect x="62.5" y="75" width="125" height="50"/><rect x="62.5" y="75" width="162.5" height="50"/></g></svg>