<svg xmlns="http://www.w3.org/2000/svg" viewBox="0 0 500 700"><g id="e90254eb-fef6-4888-9e84-c7780faba0d0" data-name="控制层"><g id="aab3e728-0aa7-4aca-b8a0-99a62e31a41a" data-name="5中"><rect x="187.5" y="475" width="125" height="50"/></g><g id="ba807371-0d73-41c5-81c4-7bbd7fc2994d" data-name="2中"><rect x="187.5" y="175" width="125" height="50"/></g></g><g id="ae35fd2a-f104-4e7e-b26f-8cb3b73ea582" data-name="6右"><rect x="312.5" y="575" width="125" height="50"/><rect x="275" y="575" width="162.5" height="50"/></g><g id="b8d1f301-0261-4339-b25b-27f9798678d8" data-name="6左"><rect x="62.5" y="575" width="125" height="50"/><rect x="62.5" y="575" width="162.5" height="50"/></g><g id="e9a19d17-b61a-40b4-bf9f-888a8f99a8fc" data-name="5右"><rect x="312.5" y="475" width="125" height="50"/><rect x="275" y="475" width="162.5" height="50"/></g><g id="a45121d3-df1f-4565-9e43-abd689f67e2e" data-name="5左"><rect x="62.5" y="475" width="125" height="50"/><rect x="62.5" y="475" width="162.5" height="50"/></g><g id="fc188c19-16f7-43a1-bc97-70b5dd05a8c8" data-name="4右"><rect x="312.5" y="375" width="125" height="50"/><rect x="275" y="375" width="162.5" height="50"/></g><g id="ba9fb013-70a0-4621-9baf-9baf52ee5b9b" data-name="4左"><rect x="62.5" y="375" width="125" height="50"/><rect x="62.5" y="375" width="162.5" height="50"/></g><g id="ac2139e3-8e26-4e9c-bef5-a8945394846d" data-name="3右"><rect x="312.5" y="275" width="125" height="50"/><rect x="275" y="275" width="162.5" height="50"/></g><g id="fd9e8abe-b73d-4be4-930b-d69fb3d7f46a" data-name="3左"><rect x="62.5" y="275" width="125" height="50"/><rect x="62.5" y="275" width="162.5" height="50"/></g><g id="f4deeda5-dac1-478d-895c-b8f8f2459b07" data-name="2右"><rect x="312.5" y="175" width="125" height="50"/><rect x="275" y="175" width="162.5" height="50"/></g><g id="afb124d0-7255-4b14-8894-7bc8e805fff4" data-name="2左"><rect x="62.5" y="175" width="125" height="50"/><rect x="62.5" y="175" width="162.5" height="50"/></g><g id="a2a557df-d68f-4146-be13-4225e85afa0f" data-name="1右"><rect x="312.5" y="75" width="125" height="50"/><rect x="275" y="75" width="162.5" height="50"/></g><g id="ecc04d4d-847c-4510-bfe9-011e54f0dbc7" data-name="1左"><rect x="62.5" y="75" width="125" height="50"/><rect x="62.5" y="75" width="162.5" height="50"/></g></svg>