<svg xmlns="http://www.w3.org/2000/svg" viewBox="0 0 500 700"><g id="ef3beb53-88c5-4193-8c4d-078ef49786e2" data-name="控制层"><g id="f0a1a5c8-86a3-443d-948d-97348611e5b3" data-name="6中"><rect x="187.5" y="575" width="125" height="50"/></g><g id="e39c3074-46f2-4371-8450-39a29aae0cc2" data-name="4中"><rect x="187.5" y="375" width="125" height="50"/></g><g id="ab9135cb-e0bf-4284-b56d-8d15549fcb96" data-name="3中"><rect x="187.5" y="275" width="125" height="50"/></g><g id="a69248a2-1ca4-48ff-97a5-06dbaf9e65be" data-name="1中"><rect x="187.5" y="75" width="125" height="50"/></g></g><g id="e1a5adf1-d31b-48cb-b7cd-400a68697636" data-name="6右"><rect x="312.5" y="575" width="125" height="50"/><rect x="275" y="575" width="162.5" height="50"/></g><g id="b752cefe-bbb0-4e60-a79f-8b2992cafb85" data-name="6左"><rect x="62.5" y="575" width="125" height="50"/><rect x="62.5" y="575" width="162.5" height="50"/></g><g id="e662712b-6d96-466c-9b2f-cc125154d822" data-name="5右"><rect x="312.5" y="475" width="125" height="50"/><rect x="275" y="475" width="162.5" height="50"/></g><g id="ff1a84fc-38c4-40c2-a6a8-5b6ec55017c6" data-name="5左"><rect x="62.5" y="475" width="125" height="50"/><rect x="62.5" y="475" width="162.5" height="50"/></g><g id="aec00cf8-3cc7-4afe-b5a7-96868010d1ab" data-name="4右"><rect x="312.5" y="375" width="125" height="50"/><rect x="275" y="375" width="162.5" height="50"/></g><g id="ffd986de-1f8a-4d70-961e-96001c3b8493" data-name="4左"><rect x="62.5" y="375" width="125" height="50"/><rect x="62.5" y="375" width="162.5" height="50"/></g><g id="a80c7ccd-65d6-4d03-89f7-c266f229bca0" data-name="3右"><rect x="312.5" y="275" width="125" height="50"/><rect x="275" y="275" width="162.5" height="50"/></g><g id="f70ac04f-b336-4f2b-8344-9831032ec0b7" data-name="3左"><rect x="62.5" y="275" width="125" height="50"/><rect x="62.5" y="275" width="162.5" height="50"/></g><g id="fabb211c-28f8-4d9d-8547-6b4809ae4444" data-name="2右"><rect x="312.5" y="175" width="125" height="50"/><rect x="275" y="175" width="162.5" height="50"/></g><g id="a4d1e4db-f458-46e9-b2ae-7ac5c7f214b0" data-name="2左"><rect x="62.5" y="175" width="125" height="50"/><rect x="62.5" y="175" width="162.5" height="50"/></g><g id="b1cdf4ed-5195-42d2-8f34-35f9653d81d6" data-name="1右"><rect x="312.5" y="75" width="125" height="50"/><rect x="275" y="75" width="162.5" height="50"/></g><g id="ad50bad8-3dc3-4c66-9e01-b322acbe8495" data-name="1左"><rect x="62.5" y="75" width="125" height="50"/><rect x="62.5" y="75" width="162.5" height="50"/></g></svg>