<svg xmlns="http://www.w3.org/2000/svg" viewBox="0 0 500 700"><g id="f4aa4131-1439-4312-9bf0-d1ee18ce5ad1" data-name="控制层"><g id="e78daf4d-e765-4181-b16d-ad37121fe097" data-name="4中"><rect x="187.5" y="375" width="125" height="50"/></g><g id="a6e58ccd-077b-47ed-8a79-6ba10c50f14c" data-name="3中"><rect x="187.5" y="275" width="125" height="50"/></g><g id="fdd87813-a128-411b-b286-02c43c92a85d" data-name="2中"><rect x="187.5" y="175" width="125" height="50"/></g></g><g id="e40cc6a5-adb6-4254-b960-ec5be86acfe6" data-name="6右"><rect x="312.5" y="575" width="125" height="50"/><rect x="275" y="575" width="162.5" height="50"/></g><g id="fd896342-6b7d-4792-9408-3d6884842dfa" data-name="6左"><rect x="62.5" y="575" width="125" height="50"/><rect x="62.5" y="575" width="162.5" height="50"/></g><g id="f333d290-6e81-4353-bf5a-c2ae01ad2430" data-name="5右"><rect x="312.5" y="475" width="125" height="50"/><rect x="275" y="475" width="162.5" height="50"/></g><g id="bc8bddd2-ddbd-485a-b5f6-4b80c3e2a7b8" data-name="5左"><rect x="62.5" y="475" width="125" height="50"/><rect x="62.5" y="475" width="162.5" height="50"/></g><g id="a3b69a56-8f57-46dd-bb67-ad8ea080866c" data-name="4右"><rect x="312.5" y="375" width="125" height="50"/><rect x="275" y="375" width="162.5" height="50"/></g><g id="b31ee3d7-30a4-4d10-9258-7e096ee08e88" data-name="4左"><rect x="62.5" y="375" width="125" height="50"/><rect x="62.5" y="375" width="162.5" height="50"/></g><g id="a2a82eb2-3820-41c2-b00e-4d364ba35c8d" data-name="3右"><rect x="312.5" y="275" width="125" height="50"/><rect x="275" y="275" width="162.5" height="50"/></g><g id="f0b9986e-ce76-4a2d-834f-3c8a0983f1e7" data-name="3左"><rect x="62.5" y="275" width="125" height="50"/><rect x="62.5" y="275" width="162.5" height="50"/></g><g id="e552082a-5ff2-4927-b5f6-859a7a513747" data-name="2右"><rect x="312.5" y="175" width="125" height="50"/><rect x="275" y="175" width="162.5" height="50"/></g><g id="e833acb2-b683-404c-927d-25d7ac11483e" data-name="2左"><rect x="62.5" y="175" width="125" height="50"/><rect x="62.5" y="175" width="162.5" height="50"/></g><g id="b8c39606-4211-42b1-9460-01a00223fb5f" data-name="1右"><rect x="312.5" y="75" width="125" height="50"/><rect x="275" y="75" width="162.5" height="50"/></g><g id="f2d1c5d8-1951-4c9a-a1ce-08a1e551713a" data-name="1左"><rect x="62.5" y="75" width="125" height="50"/><rect x="62.5" y="75" width="162.5" height="50"/></g></svg>