<svg xmlns="http://www.w3.org/2000/svg" viewBox="0 0 500 700"><g id="b4d7dd26-e016-4a05-8f04-92ede51f1083" data-name="控制层"><g id="ea663a31-2ec7-4282-a0df-37f8b4548f98" data-name="5中"><rect x="187.5" y="475" width="125" height="50"/></g><g id="a5d24d6f-eaf5-4e0a-87af-59cbf2736574" data-name="4中"><rect x="187.5" y="375" width="125" height="50"/></g><g id="a66500f0-3f9c-438d-8d7f-a5f88fcc2bb8" data-name="3中"><rect x="187.5" y="275" width="125" height="50"/></g></g><g id="b2c8a7be-836a-4187-bb62-27a832fa17ac" data-name="6右"><rect x="312.5" y="575" width="125" height="50"/><rect x="275" y="575" width="162.5" height="50"/></g><g id="fe532001-c37a-4278-b647-ba3e1d2c06bf" data-name="6左"><rect x="62.5" y="575" width="125" height="50"/><rect x="62.5" y="575" width="162.5" height="50"/></g><g id="a491d2f9-6fa0-4c0b-b2f8-14995d78799e" data-name="5右"><rect x="312.5" y="475" width="125" height="50"/><rect x="275" y="475" width="162.5" height="50"/></g><g id="ff7c0004-250c-4751-b5a4-3a0578f3bdd7" data-name="5左"><rect x="62.5" y="475" width="125" height="50"/><rect x="62.5" y="475" width="162.5" height="50"/></g><g id="bc70312d-62ec-4915-bac6-fdd825d661c5" data-name="4右"><rect x="312.5" y="375" width="125" height="50"/><rect x="275" y="375" width="162.5" height="50"/></g><g id="bf475e63-ca53-4f33-bab2-b33d28b1b061" data-name="4左"><rect x="62.5" y="375" width="125" height="50"/><rect x="62.5" y="375" width="162.5" height="50"/></g><g id="f954015c-d81d-4f97-9334-b87b99bfdf05" data-name="3右"><rect x="312.5" y="275" width="125" height="50"/><rect x="275" y="275" width="162.5" height="50"/></g><g id="f26f27c0-3504-4d3c-bc83-53fb78c54cc9" data-name="3左"><rect x="62.5" y="275" width="125" height="50"/><rect x="62.5" y="275" width="162.5" height="50"/></g><g id="b54fa4a3-aaa6-4aa1-a76a-dde2182b53d6" data-name="2右"><rect x="312.5" y="175" width="125" height="50"/><rect x="275" y="175" width="162.5" height="50"/></g><g id="b8c5440a-f34d-487d-9b67-fd4e403f8a48" data-name="2左"><rect x="62.5" y="175" width="125" height="50"/><rect x="62.5" y="175" width="162.5" height="50"/></g><g id="aaabb6d6-d7bb-4fdd-a990-71f9365eb01a" data-name="1右"><rect x="312.5" y="75" width="125" height="50"/><rect x="275" y="75" width="162.5" height="50"/></g><g id="b44153e4-798f-4286-b596-4c5cecb55d1b" data-name="1左"><rect x="62.5" y="75" width="125" height="50"/><rect x="62.5" y="75" width="162.5" height="50"/></g></svg>