<svg xmlns="http://www.w3.org/2000/svg" viewBox="0 0 500 700"><g id="a8b9a523-2b2c-457c-a5df-9a7aec8db1d8" data-name="控制层"><g id="a219b443-3947-459f-a816-71102c3c8280" data-name="4中"><rect x="187.5" y="375" width="125" height="50"/></g><g id="ba700ee5-c2ad-4ec5-9e49-f6de7f12ae61" data-name="3中"><rect x="187.5" y="275" width="125" height="50"/></g><g id="b1b9b703-2665-459d-a859-fa444309e724" data-name="2中"><rect x="187.5" y="175" width="125" height="50"/></g><g id="af8180e8-bcfa-4fb7-814f-b9065248d7f4" data-name="1中"><rect x="187.5" y="75" width="125" height="50"/></g></g><g id="b93a0b10-a129-4c71-8b0c-1a8c71fcc20a" data-name="6右"><rect x="312.5" y="575" width="125" height="50"/><rect x="275" y="575" width="162.5" height="50"/></g><g id="e52f3d7e-8e2d-446e-bbd2-b895b0593bc9" data-name="6左"><rect x="62.5" y="575" width="125" height="50"/><rect x="62.5" y="575" width="162.5" height="50"/></g><g id="ae873b32-67fb-4fdb-9bd3-0a212d805250" data-name="5右"><rect x="312.5" y="475" width="125" height="50"/><rect x="275" y="475" width="162.5" height="50"/></g><g id="abf43372-581e-4d22-b7f9-6744fc815a56" data-name="5左"><rect x="62.5" y="475" width="125" height="50"/><rect x="62.5" y="475" width="162.5" height="50"/></g><g id="ba388645-59f1-4255-98ac-014be28e98ee" data-name="4右"><rect x="312.5" y="375" width="125" height="50"/><rect x="275" y="375" width="162.5" height="50"/></g><g id="bdbd0b60-0cf4-4563-958d-56d6e8d436db" data-name="4左"><rect x="62.5" y="375" width="125" height="50"/><rect x="62.5" y="375" width="162.5" height="50"/></g><g id="a254a72c-9983-44b9-b4dd-ccf6c7176644" data-name="3右"><rect x="312.5" y="275" width="125" height="50"/><rect x="275" y="275" width="162.5" height="50"/></g><g id="b317fbfd-0b06-4a80-a66b-cee8cc41aded" data-name="3左"><rect x="62.5" y="275" width="125" height="50"/><rect x="62.5" y="275" width="162.5" height="50"/></g><g id="a4a29fcf-6353-4bc1-8f60-e287fb4c66b4" data-name="2右"><rect x="312.5" y="175" width="125" height="50"/><rect x="275" y="175" width="162.5" height="50"/></g><g id="b0fd07e1-1ecb-4dd9-93eb-03a77de7c5e6" data-name="2左"><rect x="62.5" y="175" width="125" height="50"/><rect x="62.5" y="175" width="162.5" height="50"/></g><g id="a0f18650-a597-4bdc-807f-2548a48fa37a" data-name="1右"><rect x="312.5" y="75" width="125" height="50"/><rect x="275" y="75" width="162.5" height="50"/></g><g id="ac61f883-b735-4697-928e-8cac90574edb" data-name="1左"><rect x="62.5" y="75" width="125" height="50"/><rect x="62.5" y="75" width="162.5" height="50"/></g></svg>