<svg xmlns="http://www.w3.org/2000/svg" viewBox="0 0 500 700"><g id="bf37abaa-0049-4ca2-98f5-39a47c353d4d" data-name="控制层"><g id="f74baf16-f1be-41ae-bad7-8b14c449bb0b" data-name="6中"><rect x="187.5" y="575" width="125" height="50"/></g><g id="aacc25fc-5839-4f4b-8fbe-a3187ac2865e" data-name="5中"><rect x="187.5" y="475" width="125" height="50"/></g><g id="a207e061-9c52-4d9c-97c3-9d3a09e985b3" data-name="4中"><rect x="187.5" y="375" width="125" height="50"/></g><g id="e9d0e4e3-1c9f-496c-8ef9-5fde364ac73a" data-name="3中"><rect x="187.5" y="275" width="125" height="50"/></g></g><g id="b4dc08f3-b31b-4b8e-9e41-6a1f71a559c9" data-name="6右"><rect x="312.5" y="575" width="125" height="50"/><rect x="275" y="575" width="162.5" height="50"/></g><g id="b00aae01-ff6a-43a6-ba8a-3eb1e4681afd" data-name="6左"><rect x="62.5" y="575" width="125" height="50"/><rect x="62.5" y="575" width="162.5" height="50"/></g><g id="f85459a9-5a5f-4931-b1d6-dffe4bc15735" data-name="5右"><rect x="312.5" y="475" width="125" height="50"/><rect x="275" y="475" width="162.5" height="50"/></g><g id="b5980e4e-9f65-41c2-96ec-9ae3176f8b90" data-name="5左"><rect x="62.5" y="475" width="125" height="50"/><rect x="62.5" y="475" width="162.5" height="50"/></g><g id="e8d89afb-79c4-4a21-813f-ae0e9fccf38e" data-name="4右"><rect x="312.5" y="375" width="125" height="50"/><rect x="275" y="375" width="162.5" height="50"/></g><g id="ace9a9dc-ba3d-4262-996c-f4869f01d4ca" data-name="4左"><rect x="62.5" y="375" width="125" height="50"/><rect x="62.5" y="375" width="162.5" height="50"/></g><g id="a0881aa0-9ffc-48b8-8eb2-b7d740d61c19" data-name="3右"><rect x="312.5" y="275" width="125" height="50"/><rect x="275" y="275" width="162.5" height="50"/></g><g id="e4a92381-18ce-4419-a35d-2a0879820d1f" data-name="3左"><rect x="62.5" y="275" width="125" height="50"/><rect x="62.5" y="275" width="162.5" height="50"/></g><g id="bd2eb41e-59f2-43eb-9058-f72aa7eb080f" data-name="2右"><rect x="312.5" y="175" width="125" height="50"/><rect x="275" y="175" width="162.5" height="50"/></g><g id="f0edeff7-3b38-4d3a-bda5-b66a1d423ee3" data-name="2左"><rect x="62.5" y="175" width="125" height="50"/><rect x="62.5" y="175" width="162.5" height="50"/></g><g id="a125758f-a90b-4739-8a4e-899f1f1cc86f" data-name="1右"><rect x="312.5" y="75" width="125" height="50"/><rect x="275" y="75" width="162.5" height="50"/></g><g id="f3ff0eea-480f-4e44-b32a-a053f49f363d" data-name="1左"><rect x="62.5" y="75" width="125" height="50"/><rect x="62.5" y="75" width="162.5" height="50"/></g></svg>