<svg xmlns="http://www.w3.org/2000/svg" viewBox="0 0 500 700"><g id="ad0fa0fb-b876-485c-8e47-206268c33e40" data-name="控制层"><g id="a37b2349-fb8a-474f-bc28-01e7c4145247" data-name="3中"><rect x="187.5" y="275" width="125" height="50"/></g><g id="ebde65ff-444b-49ad-8ebb-9b7d8220a9e7" data-name="1中"><rect x="187.5" y="75" width="125" height="50"/></g></g><g id="af389c05-2400-4af9-a1c7-c2d272ba6f4c" data-name="6右"><rect x="312.5" y="575" width="125" height="50"/><rect x="275" y="575" width="162.5" height="50"/></g><g id="f9beb331-1557-4006-b76e-de19585d6da3" data-name="6左"><rect x="62.5" y="575" width="125" height="50"/><rect x="62.5" y="575" width="162.5" height="50"/></g><g id="af7fa7c1-1076-4d3c-868e-030de3252a9d" data-name="5右"><rect x="312.5" y="475" width="125" height="50"/><rect x="275" y="475" width="162.5" height="50"/></g><g id="abec9282-e825-4f65-8e72-f80a5208702a" data-name="5左"><rect x="62.5" y="475" width="125" height="50"/><rect x="62.5" y="475" width="162.5" height="50"/></g><g id="ace7a273-176e-4790-860c-11e8d702e075" data-name="4右"><rect x="312.5" y="375" width="125" height="50"/><rect x="275" y="375" width="162.5" height="50"/></g><g id="a1a8f4c8-6fee-4600-9447-aadb501d7e55" data-name="4左"><rect x="62.5" y="375" width="125" height="50"/><rect x="62.5" y="375" width="162.5" height="50"/></g><g id="b372fa54-3063-4677-a3cf-223b7e8d56ff" data-name="3右"><rect x="312.5" y="275" width="125" height="50"/><rect x="275" y="275" width="162.5" height="50"/></g><g id="bdc186fd-c40c-4b02-b2f9-1d6087d3b6ca" data-name="3左"><rect x="62.5" y="275" width="125" height="50"/><rect x="62.5" y="275" width="162.5" height="50"/></g><g id="ea693b0a-41d7-4ee4-8cb7-910d24ce0699" data-name="2右"><rect x="312.5" y="175" width="125" height="50"/><rect x="275" y="175" width="162.5" height="50"/></g><g id="e4e7cbd9-199d-403f-ad6c-a2f7da820430" data-name="2左"><rect x="62.5" y="175" width="125" height="50"/><rect x="62.5" y="175" width="162.5" height="50"/></g><g id="aab44089-e4c1-4d24-a993-c2ed53ea52e5" data-name="1右"><rect x="312.5" y="75" width="125" height="50"/><rect x="275" y="75" width="162.5" height="50"/></g><g id="bca5ee43-4f94-43c6-80e4-1651d394f6fc" data-name="1左"><rect x="62.5" y="75" width="125" height="50"/><rect x="62.5" y="75" width="162.5" height="50"/></g></svg>