<svg xmlns="http://www.w3.org/2000/svg" viewBox="0 0 500 700"><g id="bc0ca73a-a295-4ca7-8d9c-06576664fc04" data-name="控制层"><g id="bc31aa11-5a43-48f8-bf34-be23a31e1d7b" data-name="6中"><rect x="187.5" y="575" width="125" height="50"/></g><g id="a4880e4f-3013-4e2a-a4e3-10731fbe1991" data-name="4中"><rect x="187.5" y="375" width="125" height="50"/></g></g><g id="bfa4c3ae-00ab-47bc-8c82-a18fba146e60" data-name="6右"><rect x="312.5" y="575" width="125" height="50"/><rect x="275" y="575" width="162.5" height="50"/></g><g id="fad2a6bd-1f3b-4cbe-8fc3-db770cf978a8" data-name="6左"><rect x="62.5" y="575" width="125" height="50"/><rect x="62.5" y="575" width="162.5" height="50"/></g><g id="acac106e-461f-4a50-9563-dedc2b00f470" data-name="5右"><rect x="312.5" y="475" width="125" height="50"/><rect x="275" y="475" width="162.5" height="50"/></g><g id="b499e0b0-78c0-4332-9dac-ba4a4e5c48d2" data-name="5左"><rect x="62.5" y="475" width="125" height="50"/><rect x="62.5" y="475" width="162.5" height="50"/></g><g id="b8375953-c7b6-4300-b4ad-bf635c67fb19" data-name="4右"><rect x="312.5" y="375" width="125" height="50"/><rect x="275" y="375" width="162.5" height="50"/></g><g id="baf6536e-4ccd-461d-9dd8-49e0f2604b68" data-name="4左"><rect x="62.5" y="375" width="125" height="50"/><rect x="62.5" y="375" width="162.5" height="50"/></g><g id="b79367bc-f011-4e2a-88aa-e1c5dd45653a" data-name="3右"><rect x="312.5" y="275" width="125" height="50"/><rect x="275" y="275" width="162.5" height="50"/></g><g id="a97fdb7e-5477-4c66-9588-4b2de2ff499e" data-name="3左"><rect x="62.5" y="275" width="125" height="50"/><rect x="62.5" y="275" width="162.5" height="50"/></g><g id="e1eb7f69-260f-471c-85be-c595412a8d7a" data-name="2右"><rect x="312.5" y="175" width="125" height="50"/><rect x="275" y="175" width="162.5" height="50"/></g><g id="b086400b-64c6-438f-841f-d06e983207bf" data-name="2左"><rect x="62.5" y="175" width="125" height="50"/><rect x="62.5" y="175" width="162.5" height="50"/></g><g id="b1b5af12-efdc-4b0c-b747-e00530edb9ae" data-name="1右"><rect x="312.5" y="75" width="125" height="50"/><rect x="275" y="75" width="162.5" height="50"/></g><g id="bf31e26b-c8d8-421a-9e18-b7d98c143c42" data-name="1左"><rect x="62.5" y="75" width="125" height="50"/><rect x="62.5" y="75" width="162.5" height="50"/></g></svg>