<svg xmlns="http://www.w3.org/2000/svg" viewBox="0 0 500 700"><g id="aeb53191-75e7-4b0e-b334-364aefa9d419" data-name="控制层"><g id="b6cf04ad-1197-4eea-a52c-139fa7c1f78b" data-name="6中"><rect x="187.5" y="575" width="125" height="50"/></g><g id="b6468e52-8896-42f6-832d-59b028c1cef2" data-name="4中"><rect x="187.5" y="375" width="125" height="50"/></g><g id="aef43c3a-b516-40fe-a1c9-151c37006c96" data-name="2中"><rect x="187.5" y="175" width="125" height="50"/></g><g id="b3c75416-4e3d-4570-8103-6973d77210f5" data-name="1中"><rect x="187.5" y="75" width="125" height="50"/></g></g><g id="e55c54a8-884e-4723-9821-6711883d8024" data-name="6右"><rect x="312.5" y="575" width="125" height="50"/><rect x="275" y="575" width="162.5" height="50"/></g><g id="be4f763c-c88b-48ed-8c8b-7d1801ffde51" data-name="6左"><rect x="62.5" y="575" width="125" height="50"/><rect x="62.5" y="575" width="162.5" height="50"/></g><g id="b5c7057f-3892-40c0-ab3b-37ab0c309bb8" data-name="5右"><rect x="312.5" y="475" width="125" height="50"/><rect x="275" y="475" width="162.5" height="50"/></g><g id="e611b2a2-1eee-4e7a-b618-64040d6cedd7" data-name="5左"><rect x="62.5" y="475" width="125" height="50"/><rect x="62.5" y="475" width="162.5" height="50"/></g><g id="ee5d37f4-af9f-4fad-a3ab-fff1242acc63" data-name="4右"><rect x="312.5" y="375" width="125" height="50"/><rect x="275" y="375" width="162.5" height="50"/></g><g id="a0d1fc66-7d6d-4e93-8e8d-afbeeefce9e3" data-name="4左"><rect x="62.5" y="375" width="125" height="50"/><rect x="62.5" y="375" width="162.5" height="50"/></g><g id="fd41588b-0f38-4d63-8e99-7bb52a37abf3" data-name="3右"><rect x="312.5" y="275" width="125" height="50"/><rect x="275" y="275" width="162.5" height="50"/></g><g id="b49b0787-be23-432e-93cb-fd2dcb02ccaf" data-name="3左"><rect x="62.5" y="275" width="125" height="50"/><rect x="62.5" y="275" width="162.5" height="50"/></g><g id="fcd58739-3c99-42d0-94c7-f19523b08706" data-name="2右"><rect x="312.5" y="175" width="125" height="50"/><rect x="275" y="175" width="162.5" height="50"/></g><g id="e0e25a7b-a27c-46dd-9673-1f0911176502" data-name="2左"><rect x="62.5" y="175" width="125" height="50"/><rect x="62.5" y="175" width="162.5" height="50"/></g><g id="a467a1b2-511a-4c1e-8a22-04371d63239c" data-name="1右"><rect x="312.5" y="75" width="125" height="50"/><rect x="275" y="75" width="162.5" height="50"/></g><g id="fc0bc33b-c65a-404a-b133-b2766c2ab4a0" data-name="1左"><rect x="62.5" y="75" width="125" height="50"/><rect x="62.5" y="75" width="162.5" height="50"/></g></svg>