<svg xmlns="http://www.w3.org/2000/svg" viewBox="0 0 500 700"><g id="bbd9466b-819d-4ae6-bb57-00a8fd2714f7" data-name="控制层"><g id="e0e514a1-6e4f-42b2-b33b-de34db583957" data-name="6中"><rect x="187.5" y="575" width="125" height="50"/></g><g id="be72cf84-b0f3-46e9-bf56-abab59a642c9" data-name="5中"><rect x="187.5" y="475" width="125" height="50"/></g><g id="a15fc903-3806-4854-ad06-115f163b43ba" data-name="3中"><rect x="187.5" y="275" width="125" height="50"/></g><g id="e372081b-dc5f-4ff4-889c-c081c155b696" data-name="1中"><rect x="187.5" y="75" width="125" height="50"/></g></g><g id="b93fbebd-d21c-409e-b64d-d3a9f1360ef6" data-name="6右"><rect x="312.5" y="575" width="125" height="50"/><rect x="275" y="575" width="162.5" height="50"/></g><g id="a7089e16-fd9f-480f-a71a-9454d8b9ddf7" data-name="6左"><rect x="62.5" y="575" width="125" height="50"/><rect x="62.5" y="575" width="162.5" height="50"/></g><g id="a484e830-99cf-44fe-8e94-eff94976af71" data-name="5右"><rect x="312.5" y="475" width="125" height="50"/><rect x="275" y="475" width="162.5" height="50"/></g><g id="b35bac57-2fab-48cd-8e27-154785b808c6" data-name="5左"><rect x="62.5" y="475" width="125" height="50"/><rect x="62.5" y="475" width="162.5" height="50"/></g><g id="f30a35a2-dc52-4b7a-a6fb-5ec73abd4298" data-name="4右"><rect x="312.5" y="375" width="125" height="50"/><rect x="275" y="375" width="162.5" height="50"/></g><g id="f8d94188-361b-41fc-ac8c-6c6be55df6f3" data-name="4左"><rect x="62.5" y="375" width="125" height="50"/><rect x="62.5" y="375" width="162.5" height="50"/></g><g id="bcc299f0-6d32-4164-9d63-f59746dac620" data-name="3右"><rect x="312.5" y="275" width="125" height="50"/><rect x="275" y="275" width="162.5" height="50"/></g><g id="efaad71d-e0a2-4164-a0c5-7016e13f50ea" data-name="3左"><rect x="62.5" y="275" width="125" height="50"/><rect x="62.5" y="275" width="162.5" height="50"/></g><g id="be4b912b-c17f-489a-8cc0-8a8dfb38b884" data-name="2右"><rect x="312.5" y="175" width="125" height="50"/><rect x="275" y="175" width="162.5" height="50"/></g><g id="e57d026d-47b2-45ef-b6cf-e1f5a0fa9e7a" data-name="2左"><rect x="62.5" y="175" width="125" height="50"/><rect x="62.5" y="175" width="162.5" height="50"/></g><g id="a7c0286a-bcdf-4350-9962-ac42b25fe4b5" data-name="1右"><rect x="312.5" y="75" width="125" height="50"/><rect x="275" y="75" width="162.5" height="50"/></g><g id="a3d07aa4-a43d-46fb-aab5-dc89c4c49f0f" data-name="1左"><rect x="62.5" y="75" width="125" height="50"/><rect x="62.5" y="75" width="162.5" height="50"/></g></svg>