<svg xmlns="http://www.w3.org/2000/svg" viewBox="0 0 500 700"><g id="e684a6ab-51eb-46b0-b226-16041d74157c" data-name="控制层"><g id="be9d6f4e-319c-461b-83cc-5ce01687d2c5" data-name="4中"><rect x="187.5" y="375" width="125" height="50"/></g><g id="aead394e-c04d-402f-b7a8-f4166c6b3916" data-name="2中"><rect x="187.5" y="175" width="125" height="50"/></g></g><g id="b7f1a65f-99ea-46ef-90bc-fe4097b27ce9" data-name="6右"><rect x="312.5" y="575" width="125" height="50"/><rect x="275" y="575" width="162.5" height="50"/></g><g id="f0665a52-223d-4fad-9f82-42d794e3d4f7" data-name="6左"><rect x="62.5" y="575" width="125" height="50"/><rect x="62.5" y="575" width="162.5" height="50"/></g><g id="b0324d54-a3b4-405c-92c5-adacb86918c3" data-name="5右"><rect x="312.5" y="475" width="125" height="50"/><rect x="275" y="475" width="162.5" height="50"/></g><g id="be70794c-ca26-480e-a6b5-d803b47071ca" data-name="5左"><rect x="62.5" y="475" width="125" height="50"/><rect x="62.5" y="475" width="162.5" height="50"/></g><g id="e17f5f8d-0723-4219-91da-56f8f9d7d1c0" data-name="4右"><rect x="312.5" y="375" width="125" height="50"/><rect x="275" y="375" width="162.5" height="50"/></g><g id="ac3eee8d-b943-4b9e-aef3-40f8655cb300" data-name="4左"><rect x="62.5" y="375" width="125" height="50"/><rect x="62.5" y="375" width="162.5" height="50"/></g><g id="b0264a88-dfd4-4055-9f1e-4bc44168e4f2" data-name="3右"><rect x="312.5" y="275" width="125" height="50"/><rect x="275" y="275" width="162.5" height="50"/></g><g id="f3999a99-c3f8-4a17-9251-add66ab30fc6" data-name="3左"><rect x="62.5" y="275" width="125" height="50"/><rect x="62.5" y="275" width="162.5" height="50"/></g><g id="f3b49b71-e219-47f5-8986-d0fe63d21259" data-name="2右"><rect x="312.5" y="175" width="125" height="50"/><rect x="275" y="175" width="162.5" height="50"/></g><g id="ff0fa6b9-90fd-4d36-b703-e5f5de237450" data-name="2左"><rect x="62.5" y="175" width="125" height="50"/><rect x="62.5" y="175" width="162.5" height="50"/></g><g id="ff58bd7d-a853-400d-a3bb-933a73bdcfeb" data-name="1右"><rect x="312.5" y="75" width="125" height="50"/><rect x="275" y="75" width="162.5" height="50"/></g><g id="e4fe52d8-df59-42f5-a1a2-57736d3e773a" data-name="1左"><rect x="62.5" y="75" width="125" height="50"/><rect x="62.5" y="75" width="162.5" height="50"/></g></svg>