<svg xmlns="http://www.w3.org/2000/svg" viewBox="0 0 500 700"><g id="b54aa31d-7b40-497a-b96d-cbd1febd181c" data-name="控制层"><g id="f0843d7a-2391-4a1d-ad9e-62f9ebed1795" data-name="5中"><rect x="187.5" y="475" width="125" height="50"/></g><g id="f57d78d0-df8e-4811-85e6-7757b7956290" data-name="3中"><rect x="187.5" y="275" width="125" height="50"/></g></g><g id="b44ceedb-ac4c-45cc-a12e-55d8f72af5b8" data-name="6右"><rect x="312.5" y="575" width="125" height="50"/><rect x="275" y="575" width="162.5" height="50"/></g><g id="bbff0ab1-e1d6-4500-95f9-48a7a6376eaa" data-name="6左"><rect x="62.5" y="575" width="125" height="50"/><rect x="62.5" y="575" width="162.5" height="50"/></g><g id="b40fe481-f0f0-46e9-b0a1-c6977241341d" data-name="5右"><rect x="312.5" y="475" width="125" height="50"/><rect x="275" y="475" width="162.5" height="50"/></g><g id="b1a935fb-b855-47b3-8c4d-2b43083e031f" data-name="5左"><rect x="62.5" y="475" width="125" height="50"/><rect x="62.5" y="475" width="162.5" height="50"/></g><g id="a8b02c84-5a37-4af6-ab22-79d4c6750066" data-name="4右"><rect x="312.5" y="375" width="125" height="50"/><rect x="275" y="375" width="162.5" height="50"/></g><g id="a0445487-ce7d-41d8-bcb5-9ddd89c79142" data-name="4左"><rect x="62.5" y="375" width="125" height="50"/><rect x="62.5" y="375" width="162.5" height="50"/></g><g id="e465b3b6-5388-4e12-8b9e-470b8a65dca2" data-name="3右"><rect x="312.5" y="275" width="125" height="50"/><rect x="275" y="275" width="162.5" height="50"/></g><g id="b0d6c546-6c8e-4bff-8c54-e5bf08b68f03" data-name="3左"><rect x="62.5" y="275" width="125" height="50"/><rect x="62.5" y="275" width="162.5" height="50"/></g><g id="ab3d965a-ebb2-49a0-85c8-1b82bd8378a6" data-name="2右"><rect x="312.5" y="175" width="125" height="50"/><rect x="275" y="175" width="162.5" height="50"/></g><g id="bd74caad-a2c5-4b4b-969a-79209f9a4955" data-name="2左"><rect x="62.5" y="175" width="125" height="50"/><rect x="62.5" y="175" width="162.5" height="50"/></g><g id="b5c6acca-6b1d-4ec6-bb6f-67d396e6247b" data-name="1右"><rect x="312.5" y="75" width="125" height="50"/><rect x="275" y="75" width="162.5" height="50"/></g><g id="af16d347-dc54-481c-aca3-fdb5267e6943" data-name="1左"><rect x="62.5" y="75" width="125" height="50"/><rect x="62.5" y="75" width="162.5" height="50"/></g></svg>