<svg xmlns="http://www.w3.org/2000/svg" viewBox="0 0 500 700"><g id="f9a8b6de-8fa3-4a8a-a7a7-938d003be4a9" data-name="控制层"><g id="f39f4efb-902b-4747-a66a-d409574bab76" data-name="6中"><rect x="187.5" y="575" width="125" height="50"/></g><g id="b3bf31eb-cf23-4773-9dfc-b0a4705e26d7" data-name="5中"><rect x="187.5" y="475" width="125" height="50"/></g><g id="a72b8db7-85d1-404b-84ca-7e0e4eed3e87" data-name="1中"><rect x="187.5" y="75" width="125" height="50"/></g></g><g id="a82b51a3-7f7a-459c-99b2-1fad6ace6e61" data-name="6右"><rect x="312.5" y="575" width="125" height="50"/><rect x="275" y="575" width="162.5" height="50"/></g><g id="ac8d4639-b2b9-476e-82e5-71faf4a0c1b4" data-name="6左"><rect x="62.5" y="575" width="125" height="50"/><rect x="62.5" y="575" width="162.5" height="50"/></g><g id="f5db69c6-976c-48f9-8369-91e21f4b7d25" data-name="5右"><rect x="312.5" y="475" width="125" height="50"/><rect x="275" y="475" width="162.5" height="50"/></g><g id="ab59c0cb-0f3c-44c7-bcf4-4f0829685072" data-name="5左"><rect x="62.5" y="475" width="125" height="50"/><rect x="62.5" y="475" width="162.5" height="50"/></g><g id="afed0eb2-1dd2-4811-a13a-7d20af70e56d" data-name="4右"><rect x="312.5" y="375" width="125" height="50"/><rect x="275" y="375" width="162.5" height="50"/></g><g id="a5a40acc-8bbe-4bbf-9fdf-50d3ab00374f" data-name="4左"><rect x="62.5" y="375" width="125" height="50"/><rect x="62.5" y="375" width="162.5" height="50"/></g><g id="b95b4eca-de2e-4708-9016-fb6e0adf4f40" data-name="3右"><rect x="312.5" y="275" width="125" height="50"/><rect x="275" y="275" width="162.5" height="50"/></g><g id="bdfd597b-f65b-4fdc-8f5b-7e04c7c73eff" data-name="3左"><rect x="62.5" y="275" width="125" height="50"/><rect x="62.5" y="275" width="162.5" height="50"/></g><g id="a6ef3be2-fe92-4b2e-9556-14a1de8bc06b" data-name="2右"><rect x="312.5" y="175" width="125" height="50"/><rect x="275" y="175" width="162.5" height="50"/></g><g id="b6baba93-0a00-41f6-affa-18ef609a0d37" data-name="2左"><rect x="62.5" y="175" width="125" height="50"/><rect x="62.5" y="175" width="162.5" height="50"/></g><g id="ad8e1bf9-8f9b-4df5-98fa-e8aa9125e01a" data-name="1右"><rect x="312.5" y="75" width="125" height="50"/><rect x="275" y="75" width="162.5" height="50"/></g><g id="e2edcfbc-a016-4c91-bd4c-219a8d21651c" data-name="1左"><rect x="62.5" y="75" width="125" height="50"/><rect x="62.5" y="75" width="162.5" height="50"/></g></svg>