<svg xmlns="http://www.w3.org/2000/svg" viewBox="0 0 500 700"><g id="b890790f-85b8-4c0c-a8ac-02d90a5bfc6f" data-name="控制层"><g id="fd3c4976-4d6c-4cca-a0cc-8845eb67a1ac" data-name="6中"><rect x="187.5" y="575" width="125" height="50"/></g><g id="a3b5f8ff-7bba-45f1-a97d-02682b136336" data-name="2中"><rect x="187.5" y="175" width="125" height="50"/></g><g id="a6c7fe5a-044b-41e6-ab71-0b7db76bff1f" data-name="1中"><rect x="187.5" y="75" width="125" height="50"/></g></g><g id="ad273ddd-26e8-49dc-877b-54551c1b09d3" data-name="6右"><rect x="312.5" y="575" width="125" height="50"/><rect x="275" y="575" width="162.5" height="50"/></g><g id="f714ad26-8a96-4268-81d8-768c38ffbc78" data-name="6左"><rect x="62.5" y="575" width="125" height="50"/><rect x="62.5" y="575" width="162.5" height="50"/></g><g id="b57271d7-2407-4115-80b3-5fc798cd40b5" data-name="5右"><rect x="312.5" y="475" width="125" height="50"/><rect x="275" y="475" width="162.5" height="50"/></g><g id="a08e0882-1c4e-4898-91a6-6b4da3e97ba1" data-name="5左"><rect x="62.5" y="475" width="125" height="50"/><rect x="62.5" y="475" width="162.5" height="50"/></g><g id="f79f0819-1a9c-466b-8007-b07b3349f186" data-name="4右"><rect x="312.5" y="375" width="125" height="50"/><rect x="275" y="375" width="162.5" height="50"/></g><g id="f52b1e5f-3400-4fc5-aa0b-2288d04d8346" data-name="4左"><rect x="62.5" y="375" width="125" height="50"/><rect x="62.5" y="375" width="162.5" height="50"/></g><g id="aea45053-c127-4a92-9908-832eb6e5c064" data-name="3右"><rect x="312.5" y="275" width="125" height="50"/><rect x="275" y="275" width="162.5" height="50"/></g><g id="f12c4e78-780f-4ce6-8552-b1b837b5a83a" data-name="3左"><rect x="62.5" y="275" width="125" height="50"/><rect x="62.5" y="275" width="162.5" height="50"/></g><g id="a9843f88-5fa2-4080-a384-def59455ad6c" data-name="2右"><rect x="312.5" y="175" width="125" height="50"/><rect x="275" y="175" width="162.5" height="50"/></g><g id="fba3bd88-1077-4d67-ba83-ef7cb44e40d4" data-name="2左"><rect x="62.5" y="175" width="125" height="50"/><rect x="62.5" y="175" width="162.5" height="50"/></g><g id="a4f7f639-6e5d-49c2-96eb-57434aad955c" data-name="1右"><rect x="312.5" y="75" width="125" height="50"/><rect x="275" y="75" width="162.5" height="50"/></g><g id="a03b336f-4f13-41de-92ab-ff17fb9942c9" data-name="1左"><rect x="62.5" y="75" width="125" height="50"/><rect x="62.5" y="75" width="162.5" height="50"/></g></svg>