<svg xmlns="http://www.w3.org/2000/svg" viewBox="0 0 500 700"><g id="a9a261b2-9db1-486e-9c33-e045cc82f0c5" data-name="控制层"><g id="a3fe523d-27a8-416d-a007-46c9df58c19e" data-name="6中"><rect x="187.5" y="575" width="125" height="50"/></g><g id="a2f10b34-f212-4e11-8ca8-e85e22fccdf0" data-name="5中"><rect x="187.5" y="475" width="125" height="50"/></g><g id="e3f42944-4b6d-450b-96a8-5528c3cedbdd" data-name="4中"><rect x="187.5" y="375" width="125" height="50"/></g><g id="f8771595-dd66-4bae-ac8f-bddc6ec1c86f" data-name="3中"><rect x="187.5" y="275" width="125" height="50"/></g><g id="a741a34f-e32a-41c7-a074-b0b59d6ab30b" data-name="2中"><rect x="187.5" y="175" width="125" height="50"/></g></g><g id="b8281b18-26da-4e66-865e-af97410e2443" data-name="6右"><rect x="312.5" y="575" width="125" height="50"/><rect x="275" y="575" width="162.5" height="50"/></g><g id="bbfe2a49-e3f6-49a8-b2ab-8c65e4f9c24e" data-name="6左"><rect x="62.5" y="575" width="125" height="50"/><rect x="62.5" y="575" width="162.5" height="50"/></g><g id="a5452edf-00bf-48b5-9bc1-aac77a326847" data-name="5右"><rect x="312.5" y="475" width="125" height="50"/><rect x="275" y="475" width="162.5" height="50"/></g><g id="a24594d4-062e-4426-b84d-6b39a3f104b6" data-name="5左"><rect x="62.5" y="475" width="125" height="50"/><rect x="62.5" y="475" width="162.5" height="50"/></g><g id="eba9d6bc-42ae-4466-acaa-2d1850762204" data-name="4右"><rect x="312.5" y="375" width="125" height="50"/><rect x="275" y="375" width="162.5" height="50"/></g><g id="be5120b0-197f-4624-ae19-9883de4b58bf" data-name="4左"><rect x="62.5" y="375" width="125" height="50"/><rect x="62.5" y="375" width="162.5" height="50"/></g><g id="b0a72d0c-4d16-4d6a-b017-177328154395" data-name="3右"><rect x="312.5" y="275" width="125" height="50"/><rect x="275" y="275" width="162.5" height="50"/></g><g id="e867f44f-ab5e-45a5-9718-c51c8c3c8bbc" data-name="3左"><rect x="62.5" y="275" width="125" height="50"/><rect x="62.5" y="275" width="162.5" height="50"/></g><g id="b7d6f3fe-f7e6-493a-aa5e-a7d8928f3c3c" data-name="2右"><rect x="312.5" y="175" width="125" height="50"/><rect x="275" y="175" width="162.5" height="50"/></g><g id="a7767ac2-b6dc-463f-a09b-631bb8512e73" data-name="2左"><rect x="62.5" y="175" width="125" height="50"/><rect x="62.5" y="175" width="162.5" height="50"/></g><g id="abca5b03-754a-4b00-b4b9-a0949bcda134" data-name="1右"><rect x="312.5" y="75" width="125" height="50"/><rect x="275" y="75" width="162.5" height="50"/></g><g id="b5fa060c-52e2-4710-aa29-ce3410f4b777" data-name="1左"><rect x="62.5" y="75" width="125" height="50"/><rect x="62.5" y="75" width="162.5" height="50"/></g></svg>