<svg xmlns="http://www.w3.org/2000/svg" viewBox="0 0 500 700"><g id="a72bd70f-f5a9-4ce8-99bd-6e94c6032fd4" data-name="控制层"><g id="f2b5b27f-58a2-4de1-9c08-d1b42a92f590" data-name="5中"><rect x="187.5" y="475" width="125" height="50"/></g><g id="b2d76eb8-c3e3-4c0f-9739-13333b4fc316" data-name="4中"><rect x="187.5" y="375" width="125" height="50"/></g><g id="f82c71f2-2127-43c1-91a8-14a64229f242" data-name="3中"><rect x="187.5" y="275" width="125" height="50"/></g><g id="fbeac175-1d4b-4a8d-a41a-3c3a3cddb5b9" data-name="2中"><rect x="187.5" y="175" width="125" height="50"/></g><g id="bbd02853-455e-434a-b41a-b86b71ea202a" data-name="1中"><rect x="187.5" y="75" width="125" height="50"/></g></g><g id="aa69f311-9f12-483a-b671-84e8cb5a85c1" data-name="6右"><rect x="312.5" y="575" width="125" height="50"/><rect x="275" y="575" width="162.5" height="50"/></g><g id="fb20ddca-d95b-45b5-965a-d18befe2faa4" data-name="6左"><rect x="62.5" y="575" width="125" height="50"/><rect x="62.5" y="575" width="162.5" height="50"/></g><g id="fba11cdb-add9-47b0-a36e-11b73a5d9154" data-name="5右"><rect x="312.5" y="475" width="125" height="50"/><rect x="275" y="475" width="162.5" height="50"/></g><g id="ea70cac5-78c6-482d-b538-8b12c2dbd8b9" data-name="5左"><rect x="62.5" y="475" width="125" height="50"/><rect x="62.5" y="475" width="162.5" height="50"/></g><g id="bedc9608-0033-4a99-860a-53441dc80c00" data-name="4右"><rect x="312.5" y="375" width="125" height="50"/><rect x="275" y="375" width="162.5" height="50"/></g><g id="e5967287-7f8e-4917-bfea-e05531f1f227" data-name="4左"><rect x="62.5" y="375" width="125" height="50"/><rect x="62.5" y="375" width="162.5" height="50"/></g><g id="b09937e7-8cfa-4961-aa16-ddb0f67c8d47" data-name="3右"><rect x="312.5" y="275" width="125" height="50"/><rect x="275" y="275" width="162.5" height="50"/></g><g id="a195b473-93e3-4dea-9c7c-90edc86fd399" data-name="3左"><rect x="62.5" y="275" width="125" height="50"/><rect x="62.5" y="275" width="162.5" height="50"/></g><g id="ab844ce4-1218-4469-a10b-3612c32a8c6a" data-name="2右"><rect x="312.5" y="175" width="125" height="50"/><rect x="275" y="175" width="162.5" height="50"/></g><g id="b503b8ca-36f4-4e4a-af22-0f86ebc51078" data-name="2左"><rect x="62.5" y="175" width="125" height="50"/><rect x="62.5" y="175" width="162.5" height="50"/></g><g id="b6b0a800-b49f-447c-a2e8-85ab1737658f" data-name="1右"><rect x="312.5" y="75" width="125" height="50"/><rect x="275" y="75" width="162.5" height="50"/></g><g id="ada30aae-fc89-4f20-b68c-ae5700850a0f" data-name="1左"><rect x="62.5" y="75" width="125" height="50"/><rect x="62.5" y="75" width="162.5" height="50"/></g></svg>