<svg xmlns="http://www.w3.org/2000/svg" viewBox="0 0 500 700"><g id="f6e6a490-2697-4084-b917-a7006bfd4c97" data-name="控制层"><g id="b67055df-cb36-4f42-99bd-a6a157b122c9" data-name="3中"><rect x="187.5" y="275" width="125" height="50"/></g><g id="bec0ba26-b95c-4cc4-9e34-eebe5b3874e8" data-name="2中"><rect x="187.5" y="175" width="125" height="50"/></g></g><g id="b19072d0-b16d-4610-b8ae-044f4da454f0" data-name="6右"><rect x="312.5" y="575" width="125" height="50"/><rect x="275" y="575" width="162.5" height="50"/></g><g id="ab8954a1-613c-4215-8ff6-f1791a9d4b95" data-name="6左"><rect x="62.5" y="575" width="125" height="50"/><rect x="62.5" y="575" width="162.5" height="50"/></g><g id="bd98ff23-fd00-49bd-9cc4-61cddac136d2" data-name="5右"><rect x="312.5" y="475" width="125" height="50"/><rect x="275" y="475" width="162.5" height="50"/></g><g id="a3ef9340-fb8a-4892-b7ec-ac2bb6478788" data-name="5左"><rect x="62.5" y="475" width="125" height="50"/><rect x="62.5" y="475" width="162.5" height="50"/></g><g id="a39008e8-4878-4a23-b692-6189e9a09a86" data-name="4右"><rect x="312.5" y="375" width="125" height="50"/><rect x="275" y="375" width="162.5" height="50"/></g><g id="b2453c46-70c4-472c-8619-a828b943b631" data-name="4左"><rect x="62.5" y="375" width="125" height="50"/><rect x="62.5" y="375" width="162.5" height="50"/></g><g id="b162999c-75be-4003-a23e-1e421bdcdc24" data-name="3右"><rect x="312.5" y="275" width="125" height="50"/><rect x="275" y="275" width="162.5" height="50"/></g><g id="e6be03cb-9e91-4173-88c3-535b07992797" data-name="3左"><rect x="62.5" y="275" width="125" height="50"/><rect x="62.5" y="275" width="162.5" height="50"/></g><g id="aa037f8a-e13d-47c6-a349-1151315fcdf0" data-name="2右"><rect x="312.5" y="175" width="125" height="50"/><rect x="275" y="175" width="162.5" height="50"/></g><g id="aa3efb85-359d-40ea-9461-8c35f41a1734" data-name="2左"><rect x="62.5" y="175" width="125" height="50"/><rect x="62.5" y="175" width="162.5" height="50"/></g><g id="b5fe3d91-89ab-4e07-8417-6a8e94cafc74" data-name="1右"><rect x="312.5" y="75" width="125" height="50"/><rect x="275" y="75" width="162.5" height="50"/></g><g id="f01ba4dd-ab9f-4de9-be3f-a977378eab77" data-name="1左"><rect x="62.5" y="75" width="125" height="50"/><rect x="62.5" y="75" width="162.5" height="50"/></g></svg>