<svg xmlns="http://www.w3.org/2000/svg" viewBox="0 0 500 700"><g id="e6bdd435-0567-43b0-90d3-85d3d5a1d5ba" data-name="控制层"><g id="ba16be67-e1e6-4be8-818a-528beae66093" data-name="5中"><rect x="187.5" y="475" width="125" height="50"/></g><g id="b1666919-cf67-4259-b990-891eed83b9bd" data-name="4中"><rect x="187.5" y="375" width="125" height="50"/></g></g><g id="a36622c6-2d22-4903-aa2f-8c3a01a36fb6" data-name="6右"><rect x="312.5" y="575" width="125" height="50"/><rect x="275" y="575" width="162.5" height="50"/></g><g id="e550fd1e-1658-4c5d-b8fd-260d6cf20ea7" data-name="6左"><rect x="62.5" y="575" width="125" height="50"/><rect x="62.5" y="575" width="162.5" height="50"/></g><g id="b9d8cc52-cad8-42a6-a781-19cd8716e6e5" data-name="5右"><rect x="312.5" y="475" width="125" height="50"/><rect x="275" y="475" width="162.5" height="50"/></g><g id="bab3f92e-de45-4265-8e5b-fbaf04df3d34" data-name="5左"><rect x="62.5" y="475" width="125" height="50"/><rect x="62.5" y="475" width="162.5" height="50"/></g><g id="a8f89bda-341f-43eb-b3b5-b70df1dd2b98" data-name="4右"><rect x="312.5" y="375" width="125" height="50"/><rect x="275" y="375" width="162.5" height="50"/></g><g id="a9c70d78-4219-498f-898f-055b1a4e8da0" data-name="4左"><rect x="62.5" y="375" width="125" height="50"/><rect x="62.5" y="375" width="162.5" height="50"/></g><g id="be577f90-2703-4695-b158-85d7da7d2d8a" data-name="3右"><rect x="312.5" y="275" width="125" height="50"/><rect x="275" y="275" width="162.5" height="50"/></g><g id="bb50d69a-d891-411b-9d46-966017e8f6ad" data-name="3左"><rect x="62.5" y="275" width="125" height="50"/><rect x="62.5" y="275" width="162.5" height="50"/></g><g id="f1426421-99e0-41a2-bb3e-f74243af686c" data-name="2右"><rect x="312.5" y="175" width="125" height="50"/><rect x="275" y="175" width="162.5" height="50"/></g><g id="b2f8e533-4d41-4927-a9a1-d0b471cfc354" data-name="2左"><rect x="62.5" y="175" width="125" height="50"/><rect x="62.5" y="175" width="162.5" height="50"/></g><g id="ef645375-5464-4278-a073-d3b41284386b" data-name="1右"><rect x="312.5" y="75" width="125" height="50"/><rect x="275" y="75" width="162.5" height="50"/></g><g id="f78d9c7b-e7ac-4679-aca9-8370f83eb74f" data-name="1左"><rect x="62.5" y="75" width="125" height="50"/><rect x="62.5" y="75" width="162.5" height="50"/></g></svg>