<svg xmlns="http://www.w3.org/2000/svg" viewBox="0 0 500 700"><g id="bccb292f-b6a9-4f26-9b95-a666f58cfdef" data-name="控制层"><g id="bb4c9370-34da-4ee3-97c5-cbf19e7c480d" data-name="5中"><rect x="187.5" y="475" width="125" height="50"/></g><g id="afa78177-12ba-430a-a573-1fad232ced3a" data-name="3中"><rect x="187.5" y="275" width="125" height="50"/></g><g id="abed05ca-c781-48c7-b093-3b4cff410e91" data-name="2中"><rect x="187.5" y="175" width="125" height="50"/></g></g><g id="e9632292-9736-4101-a6a2-2f97592e7238" data-name="6右"><rect x="312.5" y="575" width="125" height="50"/><rect x="275" y="575" width="162.5" height="50"/></g><g id="edcf5a9b-1ddf-4593-a6ad-829c4d485451" data-name="6左"><rect x="62.5" y="575" width="125" height="50"/><rect x="62.5" y="575" width="162.5" height="50"/></g><g id="b4441a52-abca-47d7-bfa8-7de599d6ba6c" data-name="5右"><rect x="312.5" y="475" width="125" height="50"/><rect x="275" y="475" width="162.5" height="50"/></g><g id="bd4c9bc0-c90c-4763-810b-0c676c59e515" data-name="5左"><rect x="62.5" y="475" width="125" height="50"/><rect x="62.5" y="475" width="162.5" height="50"/></g><g id="b98228ed-d42d-4582-9f38-dc4e35876dfd" data-name="4右"><rect x="312.5" y="375" width="125" height="50"/><rect x="275" y="375" width="162.5" height="50"/></g><g id="eb99e766-e145-4a12-b9a5-eb3012da5482" data-name="4左"><rect x="62.5" y="375" width="125" height="50"/><rect x="62.5" y="375" width="162.5" height="50"/></g><g id="f5a1ef1c-c359-4ae0-86d7-0ff89d343dcc" data-name="3右"><rect x="312.5" y="275" width="125" height="50"/><rect x="275" y="275" width="162.5" height="50"/></g><g id="f38e1a0a-3d23-4f75-abf8-f6f4c1e0ede1" data-name="3左"><rect x="62.5" y="275" width="125" height="50"/><rect x="62.5" y="275" width="162.5" height="50"/></g><g id="eb48c060-5b76-42ea-a65b-536602b86cc6" data-name="2右"><rect x="312.5" y="175" width="125" height="50"/><rect x="275" y="175" width="162.5" height="50"/></g><g id="ba601ba7-8541-434c-b15b-916e4523874c" data-name="2左"><rect x="62.5" y="175" width="125" height="50"/><rect x="62.5" y="175" width="162.5" height="50"/></g><g id="be4a63ca-2da7-4cf6-aaa2-493d30e12749" data-name="1右"><rect x="312.5" y="75" width="125" height="50"/><rect x="275" y="75" width="162.5" height="50"/></g><g id="ace73f18-6429-45bb-a22b-a01d430ce08e" data-name="1左"><rect x="62.5" y="75" width="125" height="50"/><rect x="62.5" y="75" width="162.5" height="50"/></g></svg>