<svg xmlns="http://www.w3.org/2000/svg" viewBox="0 0 500 700"><g id="a53b2be2-63ad-4710-ba81-4aaaee597ee3" data-name="控制层"><g id="abeb0a2c-38aa-4b43-b523-25fd5b9148fb" data-name="5中"><rect x="187.5" y="475" width="125" height="50"/></g><g id="e267dbf2-8fe8-4398-93d7-1744c0202e01" data-name="4中"><rect x="187.5" y="375" width="125" height="50"/></g><g id="a0969721-d32d-48c4-a249-cfbc28eaf7ac" data-name="2中"><rect x="187.5" y="175" width="125" height="50"/></g></g><g id="f5c88e37-5860-49e8-b4fe-e1e1e29572a6" data-name="6右"><rect x="312.5" y="575" width="125" height="50"/><rect x="275" y="575" width="162.5" height="50"/></g><g id="a670a7ce-ec78-4354-83ff-c84af2303ed3" data-name="6左"><rect x="62.5" y="575" width="125" height="50"/><rect x="62.5" y="575" width="162.5" height="50"/></g><g id="ae7abf7a-ceec-481f-96f8-abe06cc21238" data-name="5右"><rect x="312.5" y="475" width="125" height="50"/><rect x="275" y="475" width="162.5" height="50"/></g><g id="adc5f700-e290-42e5-a66e-7c22a1255a9d" data-name="5左"><rect x="62.5" y="475" width="125" height="50"/><rect x="62.5" y="475" width="162.5" height="50"/></g><g id="a65c5387-86f6-4271-8d0c-7d55f59c82d3" data-name="4右"><rect x="312.5" y="375" width="125" height="50"/><rect x="275" y="375" width="162.5" height="50"/></g><g id="afbc2032-fd4a-4678-bae1-c6ed146d9dcd" data-name="4左"><rect x="62.5" y="375" width="125" height="50"/><rect x="62.5" y="375" width="162.5" height="50"/></g><g id="b0054d1b-2e7a-4530-be31-a57fe346f08a" data-name="3右"><rect x="312.5" y="275" width="125" height="50"/><rect x="275" y="275" width="162.5" height="50"/></g><g id="b84101c7-3443-40ce-af13-e43bcbbecc2c" data-name="3左"><rect x="62.5" y="275" width="125" height="50"/><rect x="62.5" y="275" width="162.5" height="50"/></g><g id="b59be4af-e794-45e9-9d1f-b94dfc3b290e" data-name="2右"><rect x="312.5" y="175" width="125" height="50"/><rect x="275" y="175" width="162.5" height="50"/></g><g id="ee9d1e6b-d110-4063-8520-a4fb5c714b3b" data-name="2左"><rect x="62.5" y="175" width="125" height="50"/><rect x="62.5" y="175" width="162.5" height="50"/></g><g id="e85a3b82-9582-4c1c-bc9e-d4fd1caf7001" data-name="1右"><rect x="312.5" y="75" width="125" height="50"/><rect x="275" y="75" width="162.5" height="50"/></g><g id="aa60199a-0409-4dd6-b9c0-7294941f14b1" data-name="1左"><rect x="62.5" y="75" width="125" height="50"/><rect x="62.5" y="75" width="162.5" height="50"/></g></svg>