<svg xmlns="http://www.w3.org/2000/svg" viewBox="0 0 500 700"><g id="b48c324c-2c92-4821-a0cb-f432a6ba7d25" data-name="控制层"><g id="a56b1d93-be38-4699-9d3e-aae5fa93e569" data-name="6中"><rect x="187.5" y="575" width="125" height="50"/></g><g id="e31b1943-654c-498e-b643-62760e22eb94" data-name="4中"><rect x="187.5" y="375" width="125" height="50"/></g><g id="bd86d578-31f8-4c8f-b98d-c646fe046279" data-name="3中"><rect x="187.5" y="275" width="125" height="50"/></g><g id="ab71c45c-33b8-4167-8383-3c8add6e36e5" data-name="2中"><rect x="187.5" y="175" width="125" height="50"/></g></g><g id="abe468de-66fb-41f4-a315-3557c140fa21" data-name="6右"><rect x="312.5" y="575" width="125" height="50"/><rect x="275" y="575" width="162.5" height="50"/></g><g id="a8a8da09-e49b-4b6d-abd7-81b60f5030e2" data-name="6左"><rect x="62.5" y="575" width="125" height="50"/><rect x="62.5" y="575" width="162.5" height="50"/></g><g id="f1891548-493b-4e68-bae6-be2c4ecadf4b" data-name="5右"><rect x="312.5" y="475" width="125" height="50"/><rect x="275" y="475" width="162.5" height="50"/></g><g id="e75f329b-95a5-42ee-ae37-5956d879830e" data-name="5左"><rect x="62.5" y="475" width="125" height="50"/><rect x="62.5" y="475" width="162.5" height="50"/></g><g id="b76bf845-e28d-4bff-9fa7-c237b752da45" data-name="4右"><rect x="312.5" y="375" width="125" height="50"/><rect x="275" y="375" width="162.5" height="50"/></g><g id="a94efd0e-b20e-4555-bd5b-2d824d31a6d0" data-name="4左"><rect x="62.5" y="375" width="125" height="50"/><rect x="62.5" y="375" width="162.5" height="50"/></g><g id="f2e67b24-16ed-42ca-9876-c9d15704b73e" data-name="3右"><rect x="312.5" y="275" width="125" height="50"/><rect x="275" y="275" width="162.5" height="50"/></g><g id="a70c3ade-cb6f-48fd-9eb2-49f9f05d250b" data-name="3左"><rect x="62.5" y="275" width="125" height="50"/><rect x="62.5" y="275" width="162.5" height="50"/></g><g id="f43e7449-4744-404c-8c7e-eb7020c01d7f" data-name="2右"><rect x="312.5" y="175" width="125" height="50"/><rect x="275" y="175" width="162.5" height="50"/></g><g id="acb0195c-b0e6-4fbe-9ef0-b2273b4dbb58" data-name="2左"><rect x="62.5" y="175" width="125" height="50"/><rect x="62.5" y="175" width="162.5" height="50"/></g><g id="b4a6c2ff-9ed9-44de-a4eb-b67d7b8689b7" data-name="1右"><rect x="312.5" y="75" width="125" height="50"/><rect x="275" y="75" width="162.5" height="50"/></g><g id="a4420817-812c-44af-8931-7dfcf613096a" data-name="1左"><rect x="62.5" y="75" width="125" height="50"/><rect x="62.5" y="75" width="162.5" height="50"/></g></svg>