<svg xmlns="http://www.w3.org/2000/svg" viewBox="0 0 500 700"><g id="e5962b41-00b9-43b4-b2ad-6570851095c2" data-name="控制层"><g id="e9da95c9-e525-499d-9da6-85faad799cab" data-name="5中"><rect x="187.5" y="475" width="125" height="50"/></g><g id="b260ea02-9e9b-4754-a933-4a937dbc79f8" data-name="4中"><rect x="187.5" y="375" width="125" height="50"/></g><g id="b6ea746c-b1af-4c17-b0b8-75a3f924c995" data-name="3中"><rect x="187.5" y="275" width="125" height="50"/></g><g id="eaa16680-3355-4c6f-911c-1a2e0067ed53" data-name="1中"><rect x="187.5" y="75" width="125" height="50"/></g></g><g id="f062cd74-6653-4ffb-8167-3463269c88b1" data-name="6右"><rect x="312.5" y="575" width="125" height="50"/><rect x="275" y="575" width="162.5" height="50"/></g><g id="b935f3fc-bfd0-4454-9df3-39117e96989e" data-name="6左"><rect x="62.5" y="575" width="125" height="50"/><rect x="62.5" y="575" width="162.5" height="50"/></g><g id="e76c2f72-4fcf-49a0-9e0a-d7f12e3aeeb0" data-name="5右"><rect x="312.5" y="475" width="125" height="50"/><rect x="275" y="475" width="162.5" height="50"/></g><g id="bfdfb223-a924-48c6-ab3f-6c8985f9046e" data-name="5左"><rect x="62.5" y="475" width="125" height="50"/><rect x="62.5" y="475" width="162.5" height="50"/></g><g id="a115055a-b16d-4b52-b181-9928d2a44da0" data-name="4右"><rect x="312.5" y="375" width="125" height="50"/><rect x="275" y="375" width="162.5" height="50"/></g><g id="ad8f87a3-ba3a-4f99-8dca-e41f6ef7079a" data-name="4左"><rect x="62.5" y="375" width="125" height="50"/><rect x="62.5" y="375" width="162.5" height="50"/></g><g id="adb0bf68-9c6b-4217-8832-68b44bc5ee99" data-name="3右"><rect x="312.5" y="275" width="125" height="50"/><rect x="275" y="275" width="162.5" height="50"/></g><g id="ab0464ee-78ad-43a5-9769-726de929022d" data-name="3左"><rect x="62.5" y="275" width="125" height="50"/><rect x="62.5" y="275" width="162.5" height="50"/></g><g id="a9357dd1-10ac-4750-8d3b-5444289672b1" data-name="2右"><rect x="312.5" y="175" width="125" height="50"/><rect x="275" y="175" width="162.5" height="50"/></g><g id="bab8af9f-95fd-48be-b40c-d83b8351afd9" data-name="2左"><rect x="62.5" y="175" width="125" height="50"/><rect x="62.5" y="175" width="162.5" height="50"/></g><g id="bf026242-3122-4d34-adbe-cc30f1462b80" data-name="1右"><rect x="312.5" y="75" width="125" height="50"/><rect x="275" y="75" width="162.5" height="50"/></g><g id="a9e60229-e667-4a06-b632-0df0fbd048f6" data-name="1左"><rect x="62.5" y="75" width="125" height="50"/><rect x="62.5" y="75" width="162.5" height="50"/></g></svg>