<svg xmlns="http://www.w3.org/2000/svg" viewBox="0 0 500 700"><g id="b7e81e6a-7eb7-4244-8868-66ef839ed3c4" data-name="控制层"><g id="f5c9b56a-2ee9-4cb8-99b0-417cc21013f8" data-name="6中"><rect x="187.5" y="575" width="125" height="50"/></g><g id="f86eaf95-2851-4b5f-919b-095a664575d7" data-name="3中"><rect x="187.5" y="275" width="125" height="50"/></g></g><g id="b9dc2f5c-44ae-48c7-b289-607daef98804" data-name="6右"><rect x="312.5" y="575" width="125" height="50"/><rect x="275" y="575" width="162.5" height="50"/></g><g id="ade923f2-4dd2-45de-96c9-e44f481f5a40" data-name="6左"><rect x="62.5" y="575" width="125" height="50"/><rect x="62.5" y="575" width="162.5" height="50"/></g><g id="b7418995-7254-4b64-83a1-4b1e404920d4" data-name="5右"><rect x="312.5" y="475" width="125" height="50"/><rect x="275" y="475" width="162.5" height="50"/></g><g id="fc25dcba-6fdf-46e5-89c9-58247d141d81" data-name="5左"><rect x="62.5" y="475" width="125" height="50"/><rect x="62.5" y="475" width="162.5" height="50"/></g><g id="e05fa8ac-1d6a-4d46-b2d1-cab7b56ea25f" data-name="4右"><rect x="312.5" y="375" width="125" height="50"/><rect x="275" y="375" width="162.5" height="50"/></g><g id="a507bf1a-381d-4e82-829d-1af368a1e587" data-name="4左"><rect x="62.5" y="375" width="125" height="50"/><rect x="62.5" y="375" width="162.5" height="50"/></g><g id="b377e6c2-da93-4d02-a24f-1c797b37f5d8" data-name="3右"><rect x="312.5" y="275" width="125" height="50"/><rect x="275" y="275" width="162.5" height="50"/></g><g id="a54a8c44-7457-4057-8231-e5c021a25ded" data-name="3左"><rect x="62.5" y="275" width="125" height="50"/><rect x="62.5" y="275" width="162.5" height="50"/></g><g id="a19eda7f-d03a-444c-9d19-ba14a11e6739" data-name="2右"><rect x="312.5" y="175" width="125" height="50"/><rect x="275" y="175" width="162.5" height="50"/></g><g id="a2921522-5211-4660-8734-8e7266e0e4fa" data-name="2左"><rect x="62.5" y="175" width="125" height="50"/><rect x="62.5" y="175" width="162.5" height="50"/></g><g id="aed42058-026c-49d2-970c-fdbf94fed97f" data-name="1右"><rect x="312.5" y="75" width="125" height="50"/><rect x="275" y="75" width="162.5" height="50"/></g><g id="ec96e0e2-160a-46ef-af94-c16249e59d9d" data-name="1左"><rect x="62.5" y="75" width="125" height="50"/><rect x="62.5" y="75" width="162.5" height="50"/></g></svg>