<svg xmlns="http://www.w3.org/2000/svg" viewBox="0 0 500 700"><g id="f8a83f68-0771-4f1d-b706-12cdea7463f5" data-name="控制层"><g id="aeff2e0d-432a-4a88-9d4f-a1a48ff248f5" data-name="4中"><rect x="187.5" y="375" width="125" height="50"/></g><g id="b50c0ff4-c69d-4a3e-83ee-265ecba6436a" data-name="1中"><rect x="187.5" y="75" width="125" height="50"/></g></g><g id="af7915d1-ed7c-47ac-b516-0e52394a12ac" data-name="6右"><rect x="312.5" y="575" width="125" height="50"/><rect x="275" y="575" width="162.5" height="50"/></g><g id="b2ee2fb9-6281-447d-a96d-06e3447f979b" data-name="6左"><rect x="62.5" y="575" width="125" height="50"/><rect x="62.5" y="575" width="162.5" height="50"/></g><g id="b236564a-4871-4d0b-8977-990020432e97" data-name="5右"><rect x="312.5" y="475" width="125" height="50"/><rect x="275" y="475" width="162.5" height="50"/></g><g id="b5365c55-0659-4663-8a79-62cb935de05c" data-name="5左"><rect x="62.5" y="475" width="125" height="50"/><rect x="62.5" y="475" width="162.5" height="50"/></g><g id="b57e1995-9657-4596-b1f7-1bd252dca0bf" data-name="4右"><rect x="312.5" y="375" width="125" height="50"/><rect x="275" y="375" width="162.5" height="50"/></g><g id="f28d89bc-4cce-4444-9b80-256d7ce19fe6" data-name="4左"><rect x="62.5" y="375" width="125" height="50"/><rect x="62.5" y="375" width="162.5" height="50"/></g><g id="bce22049-be8b-4816-9298-27457b802131" data-name="3右"><rect x="312.5" y="275" width="125" height="50"/><rect x="275" y="275" width="162.5" height="50"/></g><g id="b13e7f15-d834-4a40-a619-4290f36be062" data-name="3左"><rect x="62.5" y="275" width="125" height="50"/><rect x="62.5" y="275" width="162.5" height="50"/></g><g id="a7b49c43-4283-4ac3-912b-0280884c59e7" data-name="2右"><rect x="312.5" y="175" width="125" height="50"/><rect x="275" y="175" width="162.5" height="50"/></g><g id="b28766c2-47f4-4997-be2d-c25fbb658d2f" data-name="2左"><rect x="62.5" y="175" width="125" height="50"/><rect x="62.5" y="175" width="162.5" height="50"/></g><g id="b357ddb9-5ade-462f-ba78-47416664a04a" data-name="1右"><rect x="312.5" y="75" width="125" height="50"/><rect x="275" y="75" width="162.5" height="50"/></g><g id="e608a7f9-3a2b-4a87-bb6c-92ab1feccbec" data-name="1左"><rect x="62.5" y="75" width="125" height="50"/><rect x="62.5" y="75" width="162.5" height="50"/></g></svg>