<svg xmlns="http://www.w3.org/2000/svg" viewBox="0 0 500 700"><g id="e942e860-b6ec-4181-a1da-6881bdce03d9" data-name="控制层"><g id="ad66efa6-c8aa-4c25-a72c-843a6f2fbed5" data-name="4中"><rect x="187.5" y="375" width="125" height="50"/></g><g id="be358ac9-aa0e-4648-bc34-e552e7866a97" data-name="2中"><rect x="187.5" y="175" width="125" height="50"/></g><g id="bc74ca06-92c7-40f3-845a-f63ad0730a9f" data-name="1中"><rect x="187.5" y="75" width="125" height="50"/></g></g><g id="e54acdb6-984a-4786-8e87-f0a71c572a07" data-name="6右"><rect x="312.5" y="575" width="125" height="50"/><rect x="275" y="575" width="162.5" height="50"/></g><g id="baf0e3c6-19ac-4ee1-ae5a-e6f4d829487a" data-name="6左"><rect x="62.5" y="575" width="125" height="50"/><rect x="62.5" y="575" width="162.5" height="50"/></g><g id="f4d50a0b-1dbb-4140-8957-bd73f35df10a" data-name="5右"><rect x="312.5" y="475" width="125" height="50"/><rect x="275" y="475" width="162.5" height="50"/></g><g id="b661fe76-f62a-4419-9ed0-925ed170e300" data-name="5左"><rect x="62.5" y="475" width="125" height="50"/><rect x="62.5" y="475" width="162.5" height="50"/></g><g id="adc8ab18-1733-4d98-9239-c701e594c7f9" data-name="4右"><rect x="312.5" y="375" width="125" height="50"/><rect x="275" y="375" width="162.5" height="50"/></g><g id="aecaed2f-959f-4b4c-b709-afe12b17c902" data-name="4左"><rect x="62.5" y="375" width="125" height="50"/><rect x="62.5" y="375" width="162.5" height="50"/></g><g id="ef9aa080-ea48-4bb7-8f24-91b80a747d32" data-name="3右"><rect x="312.5" y="275" width="125" height="50"/><rect x="275" y="275" width="162.5" height="50"/></g><g id="a063db00-2dcd-4ddd-9155-ead05c7f77ec" data-name="3左"><rect x="62.5" y="275" width="125" height="50"/><rect x="62.5" y="275" width="162.5" height="50"/></g><g id="b35334e5-4075-4a00-b25b-1191e7788c42" data-name="2右"><rect x="312.5" y="175" width="125" height="50"/><rect x="275" y="175" width="162.5" height="50"/></g><g id="a64a6836-5cb2-4801-8a7f-0e5837fd6abf" data-name="2左"><rect x="62.5" y="175" width="125" height="50"/><rect x="62.5" y="175" width="162.5" height="50"/></g><g id="f47023f3-01d3-4c81-bc0d-ed9a6a0fa410" data-name="1右"><rect x="312.5" y="75" width="125" height="50"/><rect x="275" y="75" width="162.5" height="50"/></g><g id="f720a6b4-4209-4127-bc3a-c6bbfcb70af3" data-name="1左"><rect x="62.5" y="75" width="125" height="50"/><rect x="62.5" y="75" width="162.5" height="50"/></g></svg>