<svg xmlns="http://www.w3.org/2000/svg" viewBox="0 0 500 700"><g id="b3904ea9-5d9a-4dff-b078-039e4d86b57e" data-name="控制层"><g id="a9e639f8-65f7-4abd-8fbd-19d38d28adfb" data-name="6中"><rect x="187.5" y="575" width="125" height="50"/></g><g id="aaf7187a-2077-42e7-88e1-d7766800fcbf" data-name="5中"><rect x="187.5" y="475" width="125" height="50"/></g><g id="a9acd4e6-2eb8-4941-bd75-8a647e0a31cb" data-name="3中"><rect x="187.5" y="275" width="125" height="50"/></g></g><g id="a138d9d4-8cf1-4497-8f34-333502797005" data-name="6右"><rect x="312.5" y="575" width="125" height="50"/><rect x="275" y="575" width="162.5" height="50"/></g><g id="e735dfbd-7d21-49a2-ae0d-f70835b55b6d" data-name="6左"><rect x="62.5" y="575" width="125" height="50"/><rect x="62.5" y="575" width="162.5" height="50"/></g><g id="b329cd8c-2ea0-4e83-9d17-4c2b0cf066d4" data-name="5右"><rect x="312.5" y="475" width="125" height="50"/><rect x="275" y="475" width="162.5" height="50"/></g><g id="a75f5e95-f642-4273-88a5-f46975941b20" data-name="5左"><rect x="62.5" y="475" width="125" height="50"/><rect x="62.5" y="475" width="162.5" height="50"/></g><g id="b171c959-3286-4a10-8fe5-991bc415bda3" data-name="4右"><rect x="312.5" y="375" width="125" height="50"/><rect x="275" y="375" width="162.5" height="50"/></g><g id="f21cee8f-7617-4dee-b19a-43e12b8400fb" data-name="4左"><rect x="62.5" y="375" width="125" height="50"/><rect x="62.5" y="375" width="162.5" height="50"/></g><g id="bdabebd1-587b-4889-9f86-1ac4654e7567" data-name="3右"><rect x="312.5" y="275" width="125" height="50"/><rect x="275" y="275" width="162.5" height="50"/></g><g id="a4437cd1-f7e2-41c0-9c90-5c0b7b1200bc" data-name="3左"><rect x="62.5" y="275" width="125" height="50"/><rect x="62.5" y="275" width="162.5" height="50"/></g><g id="ba27796c-084a-4af6-bf7f-26ae145b9dce" data-name="2右"><rect x="312.5" y="175" width="125" height="50"/><rect x="275" y="175" width="162.5" height="50"/></g><g id="fa9d89eb-640b-4612-90b9-239f1c6ccd76" data-name="2左"><rect x="62.5" y="175" width="125" height="50"/><rect x="62.5" y="175" width="162.5" height="50"/></g><g id="b8e4e4b1-e7c8-4319-aaf2-2e4ddd522728" data-name="1右"><rect x="312.5" y="75" width="125" height="50"/><rect x="275" y="75" width="162.5" height="50"/></g><g id="bdf8b963-acc4-4d11-a425-cabc05986191" data-name="1左"><rect x="62.5" y="75" width="125" height="50"/><rect x="62.5" y="75" width="162.5" height="50"/></g></svg>