<svg xmlns="http://www.w3.org/2000/svg" viewBox="0 0 500 700"><g id="bb8badab-1637-4946-ac3c-aabfab3c11c8" data-name="控制层"><g id="a92a236e-18ec-4a7b-a8ba-53d22048b58f" data-name="6中"><rect x="187.5" y="575" width="125" height="50"/></g><g id="fe3f1fee-ec12-4cea-96f2-b04d57bd27c0" data-name="4中"><rect x="187.5" y="375" width="125" height="50"/></g><g id="ab3969be-48a6-40b2-b53a-df882c0feb47" data-name="3中"><rect x="187.5" y="275" width="125" height="50"/></g></g><g id="b39db13a-76a6-4d17-938e-27e259c3a951" data-name="6右"><rect x="312.5" y="575" width="125" height="50"/><rect x="275" y="575" width="162.5" height="50"/></g><g id="f2bfa759-c9f9-4f1a-95a5-fd308dcb6008" data-name="6左"><rect x="62.5" y="575" width="125" height="50"/><rect x="62.5" y="575" width="162.5" height="50"/></g><g id="b98a2a42-0569-419a-b79f-b58e0a3ffc85" data-name="5右"><rect x="312.5" y="475" width="125" height="50"/><rect x="275" y="475" width="162.5" height="50"/></g><g id="a6326d6f-e56a-4845-a488-aee06af0e571" data-name="5左"><rect x="62.5" y="475" width="125" height="50"/><rect x="62.5" y="475" width="162.5" height="50"/></g><g id="ba550970-ba58-45ad-beb1-157963cf79bb" data-name="4右"><rect x="312.5" y="375" width="125" height="50"/><rect x="275" y="375" width="162.5" height="50"/></g><g id="fa861f78-2fdd-4abc-b43e-1119d928c4ff" data-name="4左"><rect x="62.5" y="375" width="125" height="50"/><rect x="62.5" y="375" width="162.5" height="50"/></g><g id="ac0e57c1-4231-4655-9e76-d9d9f6912f56" data-name="3右"><rect x="312.5" y="275" width="125" height="50"/><rect x="275" y="275" width="162.5" height="50"/></g><g id="efc0f5d2-f50c-4f9c-8ef7-0fd0554365e6" data-name="3左"><rect x="62.5" y="275" width="125" height="50"/><rect x="62.5" y="275" width="162.5" height="50"/></g><g id="ae00d716-0c69-4583-829b-963e385e086f" data-name="2右"><rect x="312.5" y="175" width="125" height="50"/><rect x="275" y="175" width="162.5" height="50"/></g><g id="a01f7500-9621-4bcb-aa4a-d57047fc9185" data-name="2左"><rect x="62.5" y="175" width="125" height="50"/><rect x="62.5" y="175" width="162.5" height="50"/></g><g id="b2710366-07d5-41cd-ba49-6dbc260d1133" data-name="1右"><rect x="312.5" y="75" width="125" height="50"/><rect x="275" y="75" width="162.5" height="50"/></g><g id="b4d0872c-8c2c-466b-9a79-23966aa29f61" data-name="1左"><rect x="62.5" y="75" width="125" height="50"/><rect x="62.5" y="75" width="162.5" height="50"/></g></svg>