<svg xmlns="http://www.w3.org/2000/svg" viewBox="0 0 500 700"><g id="a98c7fdf-bcf2-4f9d-8ab9-26f4adafcf4d" data-name="控制层"><g id="becffd1a-cca0-4f94-afff-3ceb178e24a1" data-name="4中"><rect x="187.5" y="375" width="125" height="50"/></g><g id="a45f90ae-059e-4ad6-811e-98ed23372e28" data-name="3中"><rect x="187.5" y="275" width="125" height="50"/></g><g id="b9984363-ff8c-4d7d-ad8b-6046d72a6ec6" data-name="1中"><rect x="187.5" y="75" width="125" height="50"/></g></g><g id="f3b99e1d-9521-4107-a27a-973fc780ea8b" data-name="6右"><rect x="312.5" y="575" width="125" height="50"/><rect x="275" y="575" width="162.5" height="50"/></g><g id="ec25e04a-7f06-44b9-93fe-e89560dc56af" data-name="6左"><rect x="62.5" y="575" width="125" height="50"/><rect x="62.5" y="575" width="162.5" height="50"/></g><g id="f70a648e-9a55-402d-a8c3-71bf0d95eb4c" data-name="5右"><rect x="312.5" y="475" width="125" height="50"/><rect x="275" y="475" width="162.5" height="50"/></g><g id="e1aba71d-fee6-4187-bb5c-89f7337859fd" data-name="5左"><rect x="62.5" y="475" width="125" height="50"/><rect x="62.5" y="475" width="162.5" height="50"/></g><g id="e5723512-feb7-4d76-b08f-13ffc0c1d906" data-name="4右"><rect x="312.5" y="375" width="125" height="50"/><rect x="275" y="375" width="162.5" height="50"/></g><g id="e7bd20d4-6301-40a1-91b3-1abb680b5a70" data-name="4左"><rect x="62.5" y="375" width="125" height="50"/><rect x="62.5" y="375" width="162.5" height="50"/></g><g id="e04f86a5-5301-4e7c-b9de-495f8bd59c2e" data-name="3右"><rect x="312.5" y="275" width="125" height="50"/><rect x="275" y="275" width="162.5" height="50"/></g><g id="bbbf8caa-cdf5-427e-b16a-dbd129854c7f" data-name="3左"><rect x="62.5" y="275" width="125" height="50"/><rect x="62.5" y="275" width="162.5" height="50"/></g><g id="f19f0f5d-6302-44e0-9bd3-f1d7b4c39539" data-name="2右"><rect x="312.5" y="175" width="125" height="50"/><rect x="275" y="175" width="162.5" height="50"/></g><g id="a8fe2fcb-bd51-4446-bdb6-e5a14d7f0dc2" data-name="2左"><rect x="62.5" y="175" width="125" height="50"/><rect x="62.5" y="175" width="162.5" height="50"/></g><g id="bc90be59-6782-46ee-b1f7-8b30cc37df3e" data-name="1右"><rect x="312.5" y="75" width="125" height="50"/><rect x="275" y="75" width="162.5" height="50"/></g><g id="e5d33373-7bd3-410a-83d5-e61d53fbe92d" data-name="1左"><rect x="62.5" y="75" width="125" height="50"/><rect x="62.5" y="75" width="162.5" height="50"/></g></svg>