<svg xmlns="http://www.w3.org/2000/svg" viewBox="0 0 500 700"><g id="bd85fca6-451b-491a-aaa1-0d4faf2fc812" data-name="控制层"><g id="b02acbc4-88de-4951-9103-c7880b99c2d1" data-name="5中"><rect x="187.5" y="475" width="125" height="50"/></g><g id="b4e05a59-f845-4181-b16c-960bac986844" data-name="4中"><rect x="187.5" y="375" width="125" height="50"/></g><g id="e34ff0b7-ff2a-4cce-967b-da096668f762" data-name="2中"><rect x="187.5" y="175" width="125" height="50"/></g><g id="eb37f0df-6511-46df-8866-adc1801ea5e2" data-name="1中"><rect x="187.5" y="75" width="125" height="50"/></g></g><g id="eea4cef5-7983-452d-998b-92ae6f121c79" data-name="6右"><rect x="312.5" y="575" width="125" height="50"/><rect x="275" y="575" width="162.5" height="50"/></g><g id="a51b0e84-662e-4d92-bc53-61c7949daabc" data-name="6左"><rect x="62.5" y="575" width="125" height="50"/><rect x="62.5" y="575" width="162.5" height="50"/></g><g id="f6872629-1c8e-476f-b970-ab120288f4f2" data-name="5右"><rect x="312.5" y="475" width="125" height="50"/><rect x="275" y="475" width="162.5" height="50"/></g><g id="abca7b1f-b5d2-4cc4-a8f9-016cda0b5cd2" data-name="5左"><rect x="62.5" y="475" width="125" height="50"/><rect x="62.5" y="475" width="162.5" height="50"/></g><g id="bdb7db4b-8c44-41d2-8e94-d54495739920" data-name="4右"><rect x="312.5" y="375" width="125" height="50"/><rect x="275" y="375" width="162.5" height="50"/></g><g id="a32f7d09-ba00-4525-a8a4-1a7a94223dbb" data-name="4左"><rect x="62.5" y="375" width="125" height="50"/><rect x="62.5" y="375" width="162.5" height="50"/></g><g id="a5ec2947-1ad5-4af6-9ad4-00fa6f1ab1f0" data-name="3右"><rect x="312.5" y="275" width="125" height="50"/><rect x="275" y="275" width="162.5" height="50"/></g><g id="e992ed10-0622-4815-9929-043212ae28df" data-name="3左"><rect x="62.5" y="275" width="125" height="50"/><rect x="62.5" y="275" width="162.5" height="50"/></g><g id="a2b4cbc4-9f9a-46a8-8534-54ab961345fc" data-name="2右"><rect x="312.5" y="175" width="125" height="50"/><rect x="275" y="175" width="162.5" height="50"/></g><g id="f568a27b-0c97-4b73-8ecb-763d7db8a33b" data-name="2左"><rect x="62.5" y="175" width="125" height="50"/><rect x="62.5" y="175" width="162.5" height="50"/></g><g id="be352c93-7864-4c39-9142-817f0b770f3a" data-name="1右"><rect x="312.5" y="75" width="125" height="50"/><rect x="275" y="75" width="162.5" height="50"/></g><g id="b6d75af9-2463-4deb-b0c3-79540c4e57b3" data-name="1左"><rect x="62.5" y="75" width="125" height="50"/><rect x="62.5" y="75" width="162.5" height="50"/></g></svg>