<svg xmlns="http://www.w3.org/2000/svg" viewBox="0 0 500 700"><g id="ffd22e82-8f77-4e42-b98d-d3e95c1a0fb3" data-name="控制层"><g id="eb3e2cd4-2edb-4be9-a6b8-ee96f9b15efe" data-name="6中"><rect x="187.5" y="575" width="125" height="50"/></g><g id="ace7aa0b-142e-4aaf-906a-1bed37993bd4" data-name="5中"><rect x="187.5" y="475" width="125" height="50"/></g><g id="bc88f3d0-4467-45ef-86ea-76a9913826de" data-name="3中"><rect x="187.5" y="275" width="125" height="50"/></g><g id="ac29fb7b-8744-455b-af28-2992969e0133" data-name="2中"><rect x="187.5" y="175" width="125" height="50"/></g></g><g id="a3316716-d4b0-433f-b81e-88febd477b67" data-name="6右"><rect x="312.5" y="575" width="125" height="50"/><rect x="275" y="575" width="162.5" height="50"/></g><g id="a47ad748-74e6-4fdc-a4ca-56c3765109a0" data-name="6左"><rect x="62.5" y="575" width="125" height="50"/><rect x="62.5" y="575" width="162.5" height="50"/></g><g id="fa94cbf9-784b-4478-a68d-08ec03f0bdae" data-name="5右"><rect x="312.5" y="475" width="125" height="50"/><rect x="275" y="475" width="162.5" height="50"/></g><g id="f3b300e1-5a7c-4e87-8bf9-8b0f0775e2de" data-name="5左"><rect x="62.5" y="475" width="125" height="50"/><rect x="62.5" y="475" width="162.5" height="50"/></g><g id="aaba1456-2f4e-4083-ae40-9aa9f736f051" data-name="4右"><rect x="312.5" y="375" width="125" height="50"/><rect x="275" y="375" width="162.5" height="50"/></g><g id="b6b83630-dc37-4c08-b3d7-cd6416d5848e" data-name="4左"><rect x="62.5" y="375" width="125" height="50"/><rect x="62.5" y="375" width="162.5" height="50"/></g><g id="f2c1c58e-b327-4f73-81a0-d5e2c0bf16e9" data-name="3右"><rect x="312.5" y="275" width="125" height="50"/><rect x="275" y="275" width="162.5" height="50"/></g><g id="e6ac3330-c404-4af1-a839-f7700fb83242" data-name="3左"><rect x="62.5" y="275" width="125" height="50"/><rect x="62.5" y="275" width="162.5" height="50"/></g><g id="a6110943-ed0f-4f3e-ab81-7705890a4889" data-name="2右"><rect x="312.5" y="175" width="125" height="50"/><rect x="275" y="175" width="162.5" height="50"/></g><g id="aa091bba-5250-4169-885a-a2b419c8243c" data-name="2左"><rect x="62.5" y="175" width="125" height="50"/><rect x="62.5" y="175" width="162.5" height="50"/></g><g id="eb53b954-ddf8-4d3d-8f59-e1ef71cb5476" data-name="1右"><rect x="312.5" y="75" width="125" height="50"/><rect x="275" y="75" width="162.5" height="50"/></g><g id="bec34e75-d89b-4114-bfae-53d13ae78d52" data-name="1左"><rect x="62.5" y="75" width="125" height="50"/><rect x="62.5" y="75" width="162.5" height="50"/></g></svg>