<svg xmlns="http://www.w3.org/2000/svg" viewBox="0 0 500 700"><g id="add16edb-ecda-4df6-b541-7fa749efd1c5" data-name="控制层"><g id="fbf92a2e-eb66-44d6-a990-7b123a3b00f9" data-name="5中"><rect x="187.5" y="475" width="125" height="50"/></g><g id="bb4b148d-f364-4bdd-bd74-e9aab5a2dbc1" data-name="2中"><rect x="187.5" y="175" width="125" height="50"/></g><g id="a3aba1d9-e1a5-4f3b-a802-2f709f35033a" data-name="1中"><rect x="187.5" y="75" width="125" height="50"/></g></g><g id="e743ca36-869f-49a8-aa8f-14326530a347" data-name="6右"><rect x="312.5" y="575" width="125" height="50"/><rect x="275" y="575" width="162.5" height="50"/></g><g id="b34fc7d0-75bf-4dc0-8455-304264cf2f89" data-name="6左"><rect x="62.5" y="575" width="125" height="50"/><rect x="62.5" y="575" width="162.5" height="50"/></g><g id="e591705a-39e7-45e2-b20c-688cb35f156a" data-name="5右"><rect x="312.5" y="475" width="125" height="50"/><rect x="275" y="475" width="162.5" height="50"/></g><g id="beb9753c-d77c-4fd8-9282-23a3b8790fb5" data-name="5左"><rect x="62.5" y="475" width="125" height="50"/><rect x="62.5" y="475" width="162.5" height="50"/></g><g id="aa3e9db7-12da-43c6-8e71-a8c0ad32013c" data-name="4右"><rect x="312.5" y="375" width="125" height="50"/><rect x="275" y="375" width="162.5" height="50"/></g><g id="a170da1f-8239-4562-a812-56a7fd48adc3" data-name="4左"><rect x="62.5" y="375" width="125" height="50"/><rect x="62.5" y="375" width="162.5" height="50"/></g><g id="a9876158-f193-4d6d-8e28-4e5347341919" data-name="3右"><rect x="312.5" y="275" width="125" height="50"/><rect x="275" y="275" width="162.5" height="50"/></g><g id="e2e882c9-2f3e-4e2f-ab71-4a3f90839c98" data-name="3左"><rect x="62.5" y="275" width="125" height="50"/><rect x="62.5" y="275" width="162.5" height="50"/></g><g id="bcb41c3d-e1f6-410f-8f0c-2840e0d9f0ed" data-name="2右"><rect x="312.5" y="175" width="125" height="50"/><rect x="275" y="175" width="162.5" height="50"/></g><g id="a908ff72-c1ea-4c10-991d-ff65a6631aa7" data-name="2左"><rect x="62.5" y="175" width="125" height="50"/><rect x="62.5" y="175" width="162.5" height="50"/></g><g id="b39a4a16-c26e-4e4e-a235-87d58587b535" data-name="1右"><rect x="312.5" y="75" width="125" height="50"/><rect x="275" y="75" width="162.5" height="50"/></g><g id="bf963c74-cf24-4248-9cf3-7f3598fe02c4" data-name="1左"><rect x="62.5" y="75" width="125" height="50"/><rect x="62.5" y="75" width="162.5" height="50"/></g></svg>