<svg xmlns="http://www.w3.org/2000/svg" viewBox="0 0 500 700"><g id="a986108e-5391-4753-b413-f0ea2908013a" data-name="控制层"><g id="e2040d33-f797-4958-9638-10af7fc2a29f" data-name="6中"><rect x="187.5" y="575" width="125" height="50"/></g><g id="b827a829-7f69-43a7-880e-656bc6044e68" data-name="5中"><rect x="187.5" y="475" width="125" height="50"/></g><g id="f94143fb-cf43-4dbd-8178-1b2147a86086" data-name="2中"><rect x="187.5" y="175" width="125" height="50"/></g></g><g id="bc50e77a-9159-4f62-98eb-feb60bb518e4" data-name="6右"><rect x="312.5" y="575" width="125" height="50"/><rect x="275" y="575" width="162.5" height="50"/></g><g id="e090c99f-edda-4a18-b7da-d0e7b2ed3400" data-name="6左"><rect x="62.5" y="575" width="125" height="50"/><rect x="62.5" y="575" width="162.5" height="50"/></g><g id="b8cc534d-8f08-4402-93c5-fb895721ad3a" data-name="5右"><rect x="312.5" y="475" width="125" height="50"/><rect x="275" y="475" width="162.5" height="50"/></g><g id="a03813db-13a6-4828-bbda-7303052ef63f" data-name="5左"><rect x="62.5" y="475" width="125" height="50"/><rect x="62.5" y="475" width="162.5" height="50"/></g><g id="aebdbec2-7864-4d93-b97f-19ea72f3dfed" data-name="4右"><rect x="312.5" y="375" width="125" height="50"/><rect x="275" y="375" width="162.5" height="50"/></g><g id="b00ed8dc-56c0-4cae-94e8-a46af60b66f6" data-name="4左"><rect x="62.5" y="375" width="125" height="50"/><rect x="62.5" y="375" width="162.5" height="50"/></g><g id="fb7be956-741b-4fa8-a66a-76d6a6f7e480" data-name="3右"><rect x="312.5" y="275" width="125" height="50"/><rect x="275" y="275" width="162.5" height="50"/></g><g id="a8c5b4f2-771f-4208-be51-2d47af039a3f" data-name="3左"><rect x="62.5" y="275" width="125" height="50"/><rect x="62.5" y="275" width="162.5" height="50"/></g><g id="e8d03442-0c17-44bc-bdbb-74370558b6f1" data-name="2右"><rect x="312.5" y="175" width="125" height="50"/><rect x="275" y="175" width="162.5" height="50"/></g><g id="a7c62785-aef7-4037-b8d3-a9d50eea3464" data-name="2左"><rect x="62.5" y="175" width="125" height="50"/><rect x="62.5" y="175" width="162.5" height="50"/></g><g id="e96ebc5a-1fa6-4246-8004-9033c64dd169" data-name="1右"><rect x="312.5" y="75" width="125" height="50"/><rect x="275" y="75" width="162.5" height="50"/></g><g id="b564c1c1-9ce9-43b9-bea4-e95b86b6b49b" data-name="1左"><rect x="62.5" y="75" width="125" height="50"/><rect x="62.5" y="75" width="162.5" height="50"/></g></svg>