<svg xmlns="http://www.w3.org/2000/svg" viewBox="0 0 500 700"><g id="e96e1b62-4d36-4970-a467-93b1932ef203" data-name="控制层"><g id="abc0452c-c93b-47d9-a895-9b2a07b0d3ac" data-name="6中"><rect x="187.5" y="575" width="125" height="50"/></g><g id="f18a62e4-5829-4401-aa13-e660fb4928f9" data-name="5中"><rect x="187.5" y="475" width="125" height="50"/></g><g id="f3b90965-c9d6-48da-9478-d5c607d1be0a" data-name="2中"><rect x="187.5" y="175" width="125" height="50"/></g><g id="a8d3794b-f511-4cbe-8743-26b8254f21ec" data-name="1中"><rect x="187.5" y="75" width="125" height="50"/></g></g><g id="a2557958-f95f-4997-8001-8585e3337573" data-name="6右"><rect x="312.5" y="575" width="125" height="50"/><rect x="275" y="575" width="162.5" height="50"/></g><g id="ed70c050-b0ac-46de-a8aa-d77fbc992d04" data-name="6左"><rect x="62.5" y="575" width="125" height="50"/><rect x="62.5" y="575" width="162.5" height="50"/></g><g id="a4ee4890-3abc-4892-bfc6-1da9f313efe6" data-name="5右"><rect x="312.5" y="475" width="125" height="50"/><rect x="275" y="475" width="162.5" height="50"/></g><g id="b930376c-4eda-441c-b486-e41d771a2d35" data-name="5左"><rect x="62.5" y="475" width="125" height="50"/><rect x="62.5" y="475" width="162.5" height="50"/></g><g id="ea515d0b-5c3f-45dd-9f74-d9b21889f0fa" data-name="4右"><rect x="312.5" y="375" width="125" height="50"/><rect x="275" y="375" width="162.5" height="50"/></g><g id="bfcd99b0-6e58-46ee-beea-2168a2d7e6b4" data-name="4左"><rect x="62.5" y="375" width="125" height="50"/><rect x="62.5" y="375" width="162.5" height="50"/></g><g id="e3e4ff44-450d-45e9-aa7f-93a20d9b95f2" data-name="3右"><rect x="312.5" y="275" width="125" height="50"/><rect x="275" y="275" width="162.5" height="50"/></g><g id="a3e6d624-a63e-4f37-9091-96b049991e39" data-name="3左"><rect x="62.5" y="275" width="125" height="50"/><rect x="62.5" y="275" width="162.5" height="50"/></g><g id="e94007b7-bd21-4425-9c8f-ce28d6f55965" data-name="2右"><rect x="312.5" y="175" width="125" height="50"/><rect x="275" y="175" width="162.5" height="50"/></g><g id="a0720f4c-b68f-45cb-8238-4707ffac8692" data-name="2左"><rect x="62.5" y="175" width="125" height="50"/><rect x="62.5" y="175" width="162.5" height="50"/></g><g id="b9ff9cb3-cfbd-4a67-9eaf-9277045b7946" data-name="1右"><rect x="312.5" y="75" width="125" height="50"/><rect x="275" y="75" width="162.5" height="50"/></g><g id="a787eba0-0a1a-4b81-96e2-d12c74d0ed3d" data-name="1左"><rect x="62.5" y="75" width="125" height="50"/><rect x="62.5" y="75" width="162.5" height="50"/></g></svg>