<svg xmlns="http://www.w3.org/2000/svg" viewBox="0 0 500 700"><g id="e075d438-051a-4326-8f53-052598545a75" data-name="控制层"><g id="a62cc2d3-9d56-4897-9d69-7765904e5878" data-name="4中"><rect x="187.5" y="375" width="125" height="50"/></g><g id="bce23218-7561-44f3-b231-b063e0d912a9" data-name="3中"><rect x="187.5" y="275" width="125" height="50"/></g></g><g id="bb03ee95-01dd-4b28-836c-1f6b16bfb94d" data-name="6右"><rect x="312.5" y="575" width="125" height="50"/><rect x="275" y="575" width="162.5" height="50"/></g><g id="a5d25b3e-b54d-4fbe-8b08-ac19b02e18a3" data-name="6左"><rect x="62.5" y="575" width="125" height="50"/><rect x="62.5" y="575" width="162.5" height="50"/></g><g id="e9789fbd-c7de-41ba-8cd9-cc73c322520f" data-name="5右"><rect x="312.5" y="475" width="125" height="50"/><rect x="275" y="475" width="162.5" height="50"/></g><g id="b393382f-738d-4ad3-b1df-e245abefa43f" data-name="5左"><rect x="62.5" y="475" width="125" height="50"/><rect x="62.5" y="475" width="162.5" height="50"/></g><g id="a2ba14e5-9ad4-4e70-b620-574bbc7498ba" data-name="4右"><rect x="312.5" y="375" width="125" height="50"/><rect x="275" y="375" width="162.5" height="50"/></g><g id="f817c81c-25d5-4251-b137-72061e0ac571" data-name="4左"><rect x="62.5" y="375" width="125" height="50"/><rect x="62.5" y="375" width="162.5" height="50"/></g><g id="fb6fe4e7-ee8f-4030-b1c7-5ef7b2bbaad3" data-name="3右"><rect x="312.5" y="275" width="125" height="50"/><rect x="275" y="275" width="162.5" height="50"/></g><g id="e1307f42-4d9d-4627-a14b-dd889a392742" data-name="3左"><rect x="62.5" y="275" width="125" height="50"/><rect x="62.5" y="275" width="162.5" height="50"/></g><g id="e596d8aa-1227-4554-8dc6-bce8b86b940b" data-name="2右"><rect x="312.5" y="175" width="125" height="50"/><rect x="275" y="175" width="162.5" height="50"/></g><g id="b05b9628-3c73-42c4-a487-1987d650832b" data-name="2左"><rect x="62.5" y="175" width="125" height="50"/><rect x="62.5" y="175" width="162.5" height="50"/></g><g id="bec3e2d8-a03f-4d98-bbe8-145ddf5c0188" data-name="1右"><rect x="312.5" y="75" width="125" height="50"/><rect x="275" y="75" width="162.5" height="50"/></g><g id="a580f9cf-e8ee-417d-b14c-42a645a284fb" data-name="1左"><rect x="62.5" y="75" width="125" height="50"/><rect x="62.5" y="75" width="162.5" height="50"/></g></svg>