<svg xmlns="http://www.w3.org/2000/svg" viewBox="0 0 500 700"><g id="bfcc7edc-32cb-4e3c-86a1-d5c1319f5ba0" data-name="控制层"><g id="b6c07110-8fb2-443a-b493-d8530549d1c9" data-name="6中"><rect x="187.5" y="575" width="125" height="50"/></g><g id="ad22b7f1-735f-49be-8856-647a30cf8709" data-name="4中"><rect x="187.5" y="375" width="125" height="50"/></g><g id="a6c2bc8b-d55e-4903-a576-a6f0bc8128a4" data-name="2中"><rect x="187.5" y="175" width="125" height="50"/></g></g><g id="a0e14284-d84a-47b7-a017-3039f096a495" data-name="6右"><rect x="312.5" y="575" width="125" height="50"/><rect x="275" y="575" width="162.5" height="50"/></g><g id="a172a747-8883-4084-bedb-ccd1232502e7" data-name="6左"><rect x="62.5" y="575" width="125" height="50"/><rect x="62.5" y="575" width="162.5" height="50"/></g><g id="f128643a-8af7-43e6-9dfb-42b7990dd80a" data-name="5右"><rect x="312.5" y="475" width="125" height="50"/><rect x="275" y="475" width="162.5" height="50"/></g><g id="f7bfdbf0-425c-4285-90bd-05c57788adde" data-name="5左"><rect x="62.5" y="475" width="125" height="50"/><rect x="62.5" y="475" width="162.5" height="50"/></g><g id="aa15bda4-b01c-47bf-b70a-5e161717d1c0" data-name="4右"><rect x="312.5" y="375" width="125" height="50"/><rect x="275" y="375" width="162.5" height="50"/></g><g id="b2fa865b-e585-4efb-bb07-213a05f0083c" data-name="4左"><rect x="62.5" y="375" width="125" height="50"/><rect x="62.5" y="375" width="162.5" height="50"/></g><g id="fa833da7-ad81-4e60-a5d3-4ac61848fbc6" data-name="3右"><rect x="312.5" y="275" width="125" height="50"/><rect x="275" y="275" width="162.5" height="50"/></g><g id="a32071e2-2997-4fd7-a60b-ce7346dba22f" data-name="3左"><rect x="62.5" y="275" width="125" height="50"/><rect x="62.5" y="275" width="162.5" height="50"/></g><g id="ab391d2d-aad3-40df-b64c-95ece9fa4a80" data-name="2右"><rect x="312.5" y="175" width="125" height="50"/><rect x="275" y="175" width="162.5" height="50"/></g><g id="a3d8eaa2-cbbe-46df-99d8-0291bc99066f" data-name="2左"><rect x="62.5" y="175" width="125" height="50"/><rect x="62.5" y="175" width="162.5" height="50"/></g><g id="a4e3a335-b43d-4590-bcd9-0419239d0c2c" data-name="1右"><rect x="312.5" y="75" width="125" height="50"/><rect x="275" y="75" width="162.5" height="50"/></g><g id="f4df4027-4cd9-4a4a-a1c1-18cbbb619afc" data-name="1左"><rect x="62.5" y="75" width="125" height="50"/><rect x="62.5" y="75" width="162.5" height="50"/></g></svg>