<svg xmlns="http://www.w3.org/2000/svg" viewBox="0 0 500 700"><g id="a7efb733-61db-4df7-90a0-d093a12fe76b" data-name="控制层"><g id="af729012-2844-4382-8db4-f39f053a8635" data-name="5中"><rect x="187.5" y="475" width="125" height="50"/></g><g id="a20820c6-1fed-452e-b877-2f92c6800767" data-name="3中"><rect x="187.5" y="275" width="125" height="50"/></g><g id="eb56d4e5-dfe1-4c7e-b296-172c067cbd9c" data-name="1中"><rect x="187.5" y="75" width="125" height="50"/></g></g><g id="fd415aaf-68c2-462d-8ac4-9bbf2a862b46" data-name="6右"><rect x="312.5" y="575" width="125" height="50"/><rect x="275" y="575" width="162.5" height="50"/></g><g id="a55186b1-c2bc-46ba-b89c-927a277a1c80" data-name="6左"><rect x="62.5" y="575" width="125" height="50"/><rect x="62.5" y="575" width="162.5" height="50"/></g><g id="ba4bc18f-6ad5-411c-a77d-e7e983544ccf" data-name="5右"><rect x="312.5" y="475" width="125" height="50"/><rect x="275" y="475" width="162.5" height="50"/></g><g id="a4493445-5166-48cd-9b7b-e48987a92829" data-name="5左"><rect x="62.5" y="475" width="125" height="50"/><rect x="62.5" y="475" width="162.5" height="50"/></g><g id="b6f34677-0056-4019-9b14-a4740a47b615" data-name="4右"><rect x="312.5" y="375" width="125" height="50"/><rect x="275" y="375" width="162.5" height="50"/></g><g id="aac5a3a5-7f4a-4f95-8f9c-2f9a86e2a722" data-name="4左"><rect x="62.5" y="375" width="125" height="50"/><rect x="62.5" y="375" width="162.5" height="50"/></g><g id="af07f6fb-f3b0-43d4-a1a3-5d68adcd60a4" data-name="3右"><rect x="312.5" y="275" width="125" height="50"/><rect x="275" y="275" width="162.5" height="50"/></g><g id="bb1fa8d6-644c-45ea-b476-6519e9c22276" data-name="3左"><rect x="62.5" y="275" width="125" height="50"/><rect x="62.5" y="275" width="162.5" height="50"/></g><g id="ac2d8ffa-0226-439a-b3c5-465db24a3a35" data-name="2右"><rect x="312.5" y="175" width="125" height="50"/><rect x="275" y="175" width="162.5" height="50"/></g><g id="b72a13ce-96c1-4499-bc28-a86931d23da5" data-name="2左"><rect x="62.5" y="175" width="125" height="50"/><rect x="62.5" y="175" width="162.5" height="50"/></g><g id="b1ce2b5e-28d8-4d3b-874a-5f793a27b2ac" data-name="1右"><rect x="312.5" y="75" width="125" height="50"/><rect x="275" y="75" width="162.5" height="50"/></g><g id="f58a4e08-626a-4cc3-a883-48525669c4fb" data-name="1左"><rect x="62.5" y="75" width="125" height="50"/><rect x="62.5" y="75" width="162.5" height="50"/></g></svg>